M48
; DRILL file {KiCad 5.1.10-88a1d61d58~88~ubuntu18.04.1} date Mon Jan 24 00:07:03 2022
; FORMAT={-:-/ absolute / metric / decimal}
; #@! TF.CreationDate,2022-01-24T00:07:03+01:00
; #@! TF.GenerationSoftware,Kicad,Pcbnew,5.1.10-88a1d61d58~88~ubuntu18.04.1
FMAT,2
METRIC
T1C1.000
T2C1.110
T3C1.200
T4C1.800
T5C3.200
%
G90
G05
T1
X78.74Y-106.68
X79.248Y-141.224
X79.756Y-93.472
X79.756Y-96.012
X79.756Y-152.908
X79.756Y-155.448
X81.28Y-106.68
X81.788Y-141.224
X83.82Y-106.68
X84.328Y-141.224
X99.06Y-120.904
X99.06Y-123.444
X99.06Y-125.984
X99.06Y-128.524
X99.568Y-106.68
X99.568Y-141.224
X100.584Y-93.472
X100.584Y-96.012
X100.584Y-152.908
X100.584Y-155.448
X102.108Y-106.68
X102.108Y-141.224
X104.648Y-106.68
X104.648Y-141.224
X120.904Y-120.396
X120.904Y-122.936
X120.904Y-125.476
X120.904Y-128.016
X122.936Y-147.32
X122.936Y-149.86
X122.936Y-152.4
X127.0Y-96.012
X127.0Y-98.552
X127.0Y-101.092
X127.0Y-103.632
X127.0Y-108.712
X127.0Y-111.252
X127.508Y-120.396
X127.508Y-122.936
X127.508Y-125.476
X127.508Y-128.016
X156.21Y-108.712
X156.21Y-111.252
T2
X76.708Y-116.84
X76.708Y-132.08
X79.248Y-116.84
X79.248Y-119.38
X79.248Y-132.08
X81.788Y-116.84
X81.788Y-132.08
X84.328Y-116.84
X84.328Y-132.08
X86.868Y-116.84
X86.868Y-132.08
X89.408Y-116.84
X89.408Y-132.08
X91.948Y-116.84
X91.948Y-132.08
X94.488Y-116.84
X94.488Y-132.08
X97.028Y-116.84
X97.028Y-132.08
X99.568Y-116.84
X99.568Y-132.08
X102.108Y-116.84
X102.108Y-132.08
X104.648Y-116.84
X104.648Y-132.08
X107.188Y-116.84
X107.188Y-132.08
X109.728Y-116.84
X109.728Y-119.38
X109.728Y-121.92
X109.728Y-124.46
X109.728Y-127.0
X109.728Y-129.54
X109.728Y-132.08
T3
X137.748Y-123.444
X142.748Y-123.444
T4
X67.564Y-94.488
X67.564Y-154.432
X71.524Y-94.488
X71.524Y-154.432
X112.776Y-94.488
X112.776Y-154.432
X116.736Y-94.488
X116.736Y-154.432
X152.908Y-117.452
X152.908Y-121.412
X152.908Y-126.088
X152.908Y-130.048
X153.416Y-95.1
X153.416Y-99.06
T5
X91.44Y-101.6
X91.948Y-147.32
X141.732Y-93.472
X141.732Y-155.448
T0
M30
