%TF.GenerationSoftware,KiCad,Pcbnew,5.1.10-88a1d61d58~88~ubuntu18.04.1*%
%TF.CreationDate,2022-01-24T00:07:05+01:00*%
%TF.ProjectId,catbot_electronics_board,7061766c-6f76-45f6-9d69-6e695f656c65,rev?*%
%TF.SameCoordinates,Original*%
%TF.FileFunction,Copper,L2,Bot*%
%TF.FilePolarity,Positive*%
%FSLAX46Y46*%
G04 Gerber Fmt 4.6, Leading zero omitted, Abs format (unit mm)*
G04 Created by KiCad (PCBNEW 5.1.10-88a1d61d58~88~ubuntu18.04.1) date 2022-01-24 00:07:05*
%MOMM*%
%LPD*%
G01*
G04 APERTURE LIST*
%TA.AperFunction,ComponentPad*%
%ADD10R,2.700000X2.700000*%
%TD*%
%TA.AperFunction,ComponentPad*%
%ADD11C,2.700000*%
%TD*%
%TA.AperFunction,ComponentPad*%
%ADD12R,1.700000X1.700000*%
%TD*%
%TA.AperFunction,ComponentPad*%
%ADD13O,1.700000X1.700000*%
%TD*%
%TA.AperFunction,ComponentPad*%
%ADD14C,1.665000*%
%TD*%
%TA.AperFunction,ComponentPad*%
%ADD15C,2.400000*%
%TD*%
%TA.AperFunction,ComponentPad*%
%ADD16R,2.400000X2.400000*%
%TD*%
%TA.AperFunction,Conductor*%
%ADD17C,1.000000*%
%TD*%
G04 APERTURE END LIST*
D10*
%TO.P,J14,1*%
%TO.N,VCC*%
X152908000Y-121412000D03*
D11*
%TO.P,J14,2*%
%TO.N,GND*%
X152908000Y-117452000D03*
%TD*%
D10*
%TO.P,J8,1*%
%TO.N,+7.5V*%
X67564000Y-154432000D03*
D11*
%TO.P,J8,2*%
%TO.N,GND*%
X71524000Y-154432000D03*
%TD*%
D12*
%TO.P,J21,1*%
%TO.N,VCC*%
X127508000Y-120396000D03*
D13*
%TO.P,J21,2*%
%TO.N,+7.5V*%
X127508000Y-122936000D03*
%TO.P,J21,3*%
%TO.N,Net-(IC1-Pad22)*%
X127508000Y-125476000D03*
%TO.P,J21,4*%
%TO.N,GND*%
X127508000Y-128016000D03*
%TD*%
D12*
%TO.P,J20,1*%
%TO.N,+3V3*%
X79756000Y-152908000D03*
D13*
%TO.P,J20,2*%
%TO.N,GND*%
X79756000Y-155448000D03*
%TD*%
D12*
%TO.P,J19,1*%
%TO.N,+3V3*%
X100584000Y-152908000D03*
D13*
%TO.P,J19,2*%
%TO.N,GND*%
X100584000Y-155448000D03*
%TD*%
D12*
%TO.P,J18,1*%
%TO.N,+3V3*%
X79756000Y-93472000D03*
D13*
%TO.P,J18,2*%
%TO.N,GND*%
X79756000Y-96012000D03*
%TD*%
D12*
%TO.P,J17,1*%
%TO.N,+3V3*%
X100584000Y-93472000D03*
D13*
%TO.P,J17,2*%
%TO.N,GND*%
X100584000Y-96012000D03*
%TD*%
D10*
%TO.P,J16,1*%
%TO.N,+5V*%
X153416000Y-99060000D03*
D11*
%TO.P,J16,2*%
%TO.N,GND*%
X153416000Y-95100000D03*
%TD*%
D10*
%TO.P,J15,1*%
%TO.N,+7.5V*%
X67564000Y-94488000D03*
D11*
%TO.P,J15,2*%
%TO.N,GND*%
X71524000Y-94488000D03*
%TD*%
D12*
%TO.P,J11,1*%
%TO.N,Net-(IC1-Pad30)*%
X120904000Y-120396000D03*
D13*
%TO.P,J11,2*%
%TO.N,Net-(IC1-Pad29)*%
X120904000Y-122936000D03*
%TO.P,J11,3*%
%TO.N,Net-(IC1-Pad28)*%
X120904000Y-125476000D03*
%TO.P,J11,4*%
%TO.N,Net-(IC1-Pad27)*%
X120904000Y-128016000D03*
%TD*%
D10*
%TO.P,J9,1*%
%TO.N,+7.5V*%
X152908000Y-130048000D03*
D11*
%TO.P,J9,2*%
%TO.N,GND*%
X152908000Y-126088000D03*
%TD*%
D12*
%TO.P,J7,1*%
%TO.N,Net-(IC1-Pad5)*%
X99568000Y-141224000D03*
D13*
%TO.P,J7,2*%
%TO.N,Net-(IC1-Pad6)*%
X102108000Y-141224000D03*
%TO.P,J7,3*%
%TO.N,Net-(IC1-Pad7)*%
X104648000Y-141224000D03*
%TD*%
D12*
%TO.P,J6,1*%
%TO.N,Net-(IC1-Pad11)*%
X99568000Y-106680000D03*
D13*
%TO.P,J6,2*%
%TO.N,Net-(IC1-Pad12)*%
X102108000Y-106680000D03*
%TO.P,J6,3*%
%TO.N,Net-(IC1-Pad13)*%
X104648000Y-106680000D03*
%TD*%
D12*
%TO.P,J5,1*%
%TO.N,Net-(IC1-Pad8)*%
X78740000Y-106680000D03*
D13*
%TO.P,J5,2*%
%TO.N,Net-(IC1-Pad9)*%
X81280000Y-106680000D03*
%TO.P,J5,3*%
%TO.N,Net-(IC1-Pad10)*%
X83820000Y-106680000D03*
%TD*%
D12*
%TO.P,J4,1*%
%TO.N,Net-(IC1-Pad2)*%
X79248000Y-141224000D03*
D13*
%TO.P,J4,2*%
%TO.N,Net-(IC1-Pad3)*%
X81788000Y-141224000D03*
%TO.P,J4,3*%
%TO.N,Net-(IC1-Pad4)*%
X84328000Y-141224000D03*
%TD*%
D10*
%TO.P,J3,1*%
%TO.N,+7.5V*%
X112776000Y-94488000D03*
D11*
%TO.P,J3,2*%
%TO.N,GND*%
X116736000Y-94488000D03*
%TD*%
D10*
%TO.P,J2,1*%
%TO.N,+7.5V*%
X112776000Y-154432000D03*
D11*
%TO.P,J2,2*%
%TO.N,GND*%
X116736000Y-154432000D03*
%TD*%
D12*
%TO.P,J1,1*%
%TO.N,Net-(IC1-Pad16)*%
X99060000Y-120904000D03*
D13*
%TO.P,J1,2*%
%TO.N,Net-(IC1-Pad25)*%
X99060000Y-123444000D03*
%TO.P,J1,3*%
%TO.N,Net-(IC1-Pad26)*%
X99060000Y-125984000D03*
%TO.P,J1,4*%
%TO.N,GND*%
X99060000Y-128524000D03*
%TD*%
D12*
%TO.P,J12,1*%
%TO.N,+5V*%
X127000000Y-103632000D03*
D13*
%TO.P,J12,2*%
%TO.N,GND*%
X127000000Y-101092000D03*
%TO.P,J12,3*%
X127000000Y-98552000D03*
%TO.P,J12,4*%
%TO.N,VCC*%
X127000000Y-96012000D03*
%TD*%
D12*
%TO.P,J13,3*%
%TO.N,VCC*%
X156210000Y-108712000D03*
D13*
%TO.P,J13,4*%
%TO.N,GND*%
X156210000Y-111252000D03*
%TO.P,J13,2*%
X127000000Y-111252000D03*
D12*
%TO.P,J13,1*%
%TO.N,+3V3*%
X127000000Y-108712000D03*
%TD*%
D13*
%TO.P,J10,3*%
%TO.N,GND*%
X122936000Y-152400000D03*
%TO.P,J10,2*%
%TO.N,+3V3*%
X122936000Y-149860000D03*
D12*
%TO.P,J10,1*%
%TO.N,Net-(IC1-Pad21)*%
X122936000Y-147320000D03*
%TD*%
D14*
%TO.P,Teensy,34*%
%TO.N,GND*%
X79248000Y-119380000D03*
%TO.P,Teensy,33*%
%TO.N,Net-(IC1-Pad33)*%
X76708000Y-116840000D03*
%TO.P,Teensy,32*%
%TO.N,GND*%
X79248000Y-116840000D03*
%TO.P,Teensy,31*%
%TO.N,Net-(IC1-Pad31)*%
X81788000Y-116840000D03*
%TO.P,Teensy,30*%
%TO.N,Net-(IC1-Pad30)*%
X84328000Y-116840000D03*
%TO.P,Teensy,29*%
%TO.N,Net-(IC1-Pad29)*%
X86868000Y-116840000D03*
%TO.P,Teensy,28*%
%TO.N,Net-(IC1-Pad28)*%
X89408000Y-116840000D03*
%TO.P,Teensy,27*%
%TO.N,Net-(IC1-Pad27)*%
X91948000Y-116840000D03*
%TO.P,Teensy,26*%
%TO.N,Net-(IC1-Pad26)*%
X94488000Y-116840000D03*
%TO.P,Teensy,25*%
%TO.N,Net-(IC1-Pad25)*%
X97028000Y-116840000D03*
%TO.P,Teensy,24*%
%TO.N,Net-(IC1-Pad24)*%
X99568000Y-116840000D03*
%TO.P,Teensy,23*%
%TO.N,Net-(IC1-Pad23)*%
X102108000Y-116840000D03*
%TO.P,Teensy,22*%
%TO.N,Net-(IC1-Pad22)*%
X104648000Y-116840000D03*
%TO.P,Teensy,21*%
%TO.N,Net-(IC1-Pad21)*%
X107188000Y-116840000D03*
%TO.P,Teensy,20*%
%TO.N,Net-(IC1-Pad20)*%
X109728000Y-116840000D03*
%TO.P,Teensy,19*%
%TO.N,Net-(IC1-Pad19)*%
X109728000Y-119380000D03*
%TO.P,Teensy,18*%
%TO.N,Net-(IC1-Pad18)*%
X109728000Y-121920000D03*
%TO.P,Teensy,17*%
%TO.N,GND*%
X109728000Y-124460000D03*
%TO.P,Teensy,16*%
%TO.N,Net-(IC1-Pad16)*%
X109728000Y-127000000D03*
%TO.P,Teensy,15*%
%TO.N,Net-(IC1-Pad15)*%
X109728000Y-129540000D03*
%TO.P,Teensy,14*%
%TO.N,Net-(IC1-Pad14)*%
X109728000Y-132080000D03*
%TO.P,Teensy,13*%
%TO.N,Net-(IC1-Pad13)*%
X107188000Y-132080000D03*
%TO.P,Teensy,12*%
%TO.N,Net-(IC1-Pad12)*%
X104648000Y-132080000D03*
%TO.P,Teensy,11*%
%TO.N,Net-(IC1-Pad11)*%
X102108000Y-132080000D03*
%TO.P,Teensy,10*%
%TO.N,Net-(IC1-Pad10)*%
X99568000Y-132080000D03*
%TO.P,Teensy,9*%
%TO.N,Net-(IC1-Pad9)*%
X97028000Y-132080000D03*
%TO.P,Teensy,8*%
%TO.N,Net-(IC1-Pad8)*%
X94488000Y-132080000D03*
%TO.P,Teensy,7*%
%TO.N,Net-(IC1-Pad7)*%
X91948000Y-132080000D03*
%TO.P,Teensy,6*%
%TO.N,Net-(IC1-Pad6)*%
X89408000Y-132080000D03*
%TO.P,Teensy,5*%
%TO.N,Net-(IC1-Pad5)*%
X86868000Y-132080000D03*
%TO.P,Teensy,4*%
%TO.N,Net-(IC1-Pad4)*%
X84328000Y-132080000D03*
%TO.P,Teensy,3*%
%TO.N,Net-(IC1-Pad3)*%
X81788000Y-132080000D03*
%TO.P,Teensy,2*%
%TO.N,Net-(IC1-Pad2)*%
X79248000Y-132080000D03*
%TO.P,Teensy,1*%
%TO.N,GND*%
X76708000Y-132080000D03*
%TD*%
D15*
%TO.P,C1,2*%
%TO.N,GND*%
X137748000Y-123444000D03*
D16*
%TO.P,C1,1*%
%TO.N,VCC*%
X142748000Y-123444000D03*
%TD*%
D17*
%TO.N,Net-(IC1-Pad25)*%
X99060000Y-123444000D02*
X98044000Y-123444000D01*
X98044000Y-123444000D02*
X96520000Y-121920000D01*
X96520000Y-117348000D02*
X97028000Y-116840000D01*
X96520000Y-121920000D02*
X96520000Y-117348000D01*
%TO.N,Net-(IC1-Pad22)*%
X127508000Y-125476000D02*
X125984000Y-125476000D01*
X125984000Y-125476000D02*
X124968000Y-124460000D01*
X124968000Y-124460000D02*
X124968000Y-115824000D01*
X124968000Y-115824000D02*
X108712000Y-99568000D01*
X108712000Y-99568000D02*
X99568000Y-99568000D01*
X99568000Y-99568000D02*
X95504000Y-103632000D01*
X95504000Y-103632000D02*
X95504000Y-108712000D01*
X95504000Y-108712000D02*
X97028000Y-110236000D01*
X97028000Y-110236000D02*
X102108000Y-110236000D01*
X104648000Y-112776000D02*
X104648000Y-116840000D01*
X102108000Y-110236000D02*
X104648000Y-112776000D01*
%TO.N,Net-(IC1-Pad13)*%
X107188000Y-132080000D02*
X107188000Y-133604000D01*
X107188000Y-133604000D02*
X108712000Y-135128000D01*
X108712000Y-135128000D02*
X110744000Y-135128000D01*
X110744000Y-135128000D02*
X112776000Y-133096000D01*
X112776000Y-133096000D02*
X112776000Y-114300000D01*
X112776000Y-114300000D02*
X107696000Y-109220000D01*
X107696000Y-109220000D02*
X106172000Y-109220000D01*
X104648000Y-107696000D02*
X104648000Y-106680000D01*
X106172000Y-109220000D02*
X104648000Y-107696000D01*
%TO.N,Net-(IC1-Pad12)*%
X104648000Y-132080000D02*
X104648000Y-134112000D01*
X104648000Y-134112000D02*
X107696000Y-137160000D01*
X107696000Y-137160000D02*
X111760000Y-137160000D01*
X111760000Y-137160000D02*
X114808000Y-134112000D01*
X114808000Y-134112000D02*
X114808000Y-113792000D01*
X114808000Y-113792000D02*
X105664000Y-104648000D01*
X105664000Y-104648000D02*
X103124000Y-104648000D01*
X102108000Y-105664000D02*
X102108000Y-106680000D01*
X103124000Y-104648000D02*
X102108000Y-105664000D01*
%TO.N,Net-(IC1-Pad11)*%
X102108000Y-132080000D02*
X102108000Y-134620000D01*
X102108000Y-134620000D02*
X106680000Y-139192000D01*
X106680000Y-139192000D02*
X112776000Y-139192000D01*
X112776000Y-139192000D02*
X116840000Y-135128000D01*
X116840000Y-135128000D02*
X116840000Y-112776000D01*
X116840000Y-112776000D02*
X106680000Y-102616000D01*
X106680000Y-102616000D02*
X102108000Y-102616000D01*
X99568000Y-105156000D02*
X99568000Y-106680000D01*
X102108000Y-102616000D02*
X99568000Y-105156000D01*
%TO.N,Net-(IC1-Pad10)*%
X93795990Y-137852010D02*
X93287990Y-137852010D01*
X99568000Y-132080000D02*
X93795990Y-137852010D01*
X93287990Y-137852010D02*
X92456000Y-138684000D01*
X92456000Y-138684000D02*
X73660000Y-138684000D01*
X73660000Y-138684000D02*
X67564000Y-132588000D01*
X67564000Y-132588000D02*
X67564000Y-110744000D01*
X67564000Y-110744000D02*
X76200000Y-102108000D01*
X76200000Y-102108000D02*
X81280000Y-102108000D01*
X83820000Y-104648000D02*
X83820000Y-106680000D01*
X81280000Y-102108000D02*
X83820000Y-104648000D01*
%TO.N,Net-(IC1-Pad9)*%
X81280000Y-105477919D02*
X81280000Y-106680000D01*
X79942081Y-104140000D02*
X81280000Y-105477919D01*
X97028000Y-132080000D02*
X92456000Y-136652000D01*
X77216000Y-104140000D02*
X79942081Y-104140000D01*
X92456000Y-136652000D02*
X74676000Y-136652000D01*
X69596000Y-131572000D02*
X69596000Y-111760000D01*
X74676000Y-136652000D02*
X69596000Y-131572000D01*
X69596000Y-111760000D02*
X77216000Y-104140000D01*
%TO.N,Net-(IC1-Pad8)*%
X78740000Y-107188000D02*
X78740000Y-106680000D01*
X71628000Y-114300000D02*
X78740000Y-107188000D01*
X94488000Y-132080000D02*
X91948000Y-134620000D01*
X71628000Y-131064000D02*
X71628000Y-114300000D01*
X75184000Y-134620000D02*
X71628000Y-131064000D01*
X91948000Y-134620000D02*
X75184000Y-134620000D01*
%TO.N,GND*%
X156210000Y-111252000D02*
X127000000Y-111252000D01*
X127000000Y-98552000D02*
X144780000Y-98552000D01*
X148232000Y-95100000D02*
X153416000Y-95100000D01*
X144780000Y-98552000D02*
X148232000Y-95100000D01*
X127000000Y-98552000D02*
X127000000Y-101092000D01*
X116736000Y-154432000D02*
X116736000Y-153312000D01*
X116736000Y-154432000D02*
X116736000Y-152296000D01*
X116736000Y-152296000D02*
X115824000Y-151384000D01*
X115824000Y-151384000D02*
X109728000Y-151384000D01*
X105664000Y-155448000D02*
X100584000Y-155448000D01*
X109728000Y-151384000D02*
X105664000Y-155448000D01*
X122936000Y-152400000D02*
X124968000Y-152400000D01*
X127508000Y-149860000D02*
X127508000Y-128016000D01*
X124968000Y-152400000D02*
X127508000Y-149860000D01*
X88392000Y-128524000D02*
X79248000Y-119380000D01*
X99060000Y-128524000D02*
X88392000Y-128524000D01*
%TO.N,Net-(IC1-Pad26)*%
X99060000Y-125984000D02*
X97536000Y-125984000D01*
X94488000Y-122936000D02*
X94488000Y-116840000D01*
X97536000Y-125984000D02*
X94488000Y-122936000D01*
%TO.N,Net-(IC1-Pad21)*%
X122936000Y-116332000D02*
X122936000Y-147320000D01*
X107696000Y-101092000D02*
X122936000Y-116332000D01*
X100584000Y-101092000D02*
X107696000Y-101092000D01*
X107188000Y-112776000D02*
X103124000Y-108712000D01*
X107188000Y-116840000D02*
X107188000Y-112776000D01*
X97028000Y-104648000D02*
X100584000Y-101092000D01*
X103124000Y-108712000D02*
X98044000Y-108712000D01*
X98044000Y-108712000D02*
X97028000Y-107696000D01*
X97028000Y-107696000D02*
X97028000Y-104648000D01*
%TO.N,Net-(IC1-Pad16)*%
X99060000Y-120904000D02*
X101600000Y-120904000D01*
X107696000Y-127000000D02*
X109728000Y-127000000D01*
X101600000Y-120904000D02*
X107696000Y-127000000D01*
%TO.N,+7.5V*%
X152908000Y-130048000D02*
X138176000Y-130048000D01*
X131064000Y-122936000D02*
X127508000Y-122936000D01*
X138176000Y-130048000D02*
X131064000Y-122936000D01*
%TO.N,+3V3*%
X122936000Y-149860000D02*
X107696000Y-149860000D01*
X104648000Y-152908000D02*
X100584000Y-152908000D01*
X107696000Y-149860000D02*
X104648000Y-152908000D01*
X127000000Y-108712000D02*
X121920000Y-108712000D01*
X121920000Y-108712000D02*
X110744000Y-97536000D01*
X110744000Y-97536000D02*
X108204000Y-97536000D01*
X104140000Y-93472000D02*
X100584000Y-93472000D01*
X108204000Y-97536000D02*
X104140000Y-93472000D01*
X79756000Y-152908000D02*
X78232000Y-152908000D01*
X78232000Y-152908000D02*
X65532000Y-140208000D01*
X65532000Y-140208000D02*
X65532000Y-108712000D01*
X65532000Y-108712000D02*
X76200000Y-98044000D01*
X76200000Y-98044000D02*
X76200000Y-95504000D01*
X78232000Y-93472000D02*
X79756000Y-93472000D01*
X76200000Y-95504000D02*
X78232000Y-93472000D01*
%TO.N,+5V*%
X127000000Y-103632000D02*
X145288000Y-103632000D01*
X149860000Y-99060000D02*
X153416000Y-99060000D01*
X145288000Y-103632000D02*
X149860000Y-99060000D01*
%TD*%
M02*
