%TF.GenerationSoftware,KiCad,Pcbnew,5.1.10-88a1d61d58~88~ubuntu18.04.1*%
%TF.CreationDate,2022-01-24T00:07:05+01:00*%
%TF.ProjectId,catbot_electronics_board,7061766c-6f76-45f6-9d69-6e695f656c65,rev?*%
%TF.SameCoordinates,Original*%
%TF.FileFunction,Copper,L1,Top*%
%TF.FilePolarity,Positive*%
%FSLAX46Y46*%
G04 Gerber Fmt 4.6, Leading zero omitted, Abs format (unit mm)*
G04 Created by KiCad (PCBNEW 5.1.10-88a1d61d58~88~ubuntu18.04.1) date 2022-01-24 00:07:05*
%MOMM*%
%LPD*%
G01*
G04 APERTURE LIST*
%TA.AperFunction,ComponentPad*%
%ADD10R,2.700000X2.700000*%
%TD*%
%TA.AperFunction,ComponentPad*%
%ADD11C,2.700000*%
%TD*%
%TA.AperFunction,ComponentPad*%
%ADD12R,1.700000X1.700000*%
%TD*%
%TA.AperFunction,ComponentPad*%
%ADD13O,1.700000X1.700000*%
%TD*%
%TA.AperFunction,ComponentPad*%
%ADD14C,1.665000*%
%TD*%
%TA.AperFunction,ComponentPad*%
%ADD15C,2.400000*%
%TD*%
%TA.AperFunction,ComponentPad*%
%ADD16R,2.400000X2.400000*%
%TD*%
%TA.AperFunction,Conductor*%
%ADD17C,1.000000*%
%TD*%
G04 APERTURE END LIST*
D10*
%TO.P,J14,1*%
%TO.N,VCC*%
X152908000Y-121412000D03*
D11*
%TO.P,J14,2*%
%TO.N,GND*%
X152908000Y-117452000D03*
%TD*%
D10*
%TO.P,J8,1*%
%TO.N,+7.5V*%
X67564000Y-154432000D03*
D11*
%TO.P,J8,2*%
%TO.N,GND*%
X71524000Y-154432000D03*
%TD*%
D12*
%TO.P,J21,1*%
%TO.N,VCC*%
X127508000Y-120396000D03*
D13*
%TO.P,J21,2*%
%TO.N,+7.5V*%
X127508000Y-122936000D03*
%TO.P,J21,3*%
%TO.N,Net-(IC1-Pad22)*%
X127508000Y-125476000D03*
%TO.P,J21,4*%
%TO.N,GND*%
X127508000Y-128016000D03*
%TD*%
D12*
%TO.P,J20,1*%
%TO.N,+3V3*%
X79756000Y-152908000D03*
D13*
%TO.P,J20,2*%
%TO.N,GND*%
X79756000Y-155448000D03*
%TD*%
D12*
%TO.P,J19,1*%
%TO.N,+3V3*%
X100584000Y-152908000D03*
D13*
%TO.P,J19,2*%
%TO.N,GND*%
X100584000Y-155448000D03*
%TD*%
D12*
%TO.P,J18,1*%
%TO.N,+3V3*%
X79756000Y-93472000D03*
D13*
%TO.P,J18,2*%
%TO.N,GND*%
X79756000Y-96012000D03*
%TD*%
D12*
%TO.P,J17,1*%
%TO.N,+3V3*%
X100584000Y-93472000D03*
D13*
%TO.P,J17,2*%
%TO.N,GND*%
X100584000Y-96012000D03*
%TD*%
D10*
%TO.P,J16,1*%
%TO.N,+5V*%
X153416000Y-99060000D03*
D11*
%TO.P,J16,2*%
%TO.N,GND*%
X153416000Y-95100000D03*
%TD*%
D10*
%TO.P,J15,1*%
%TO.N,+7.5V*%
X67564000Y-94488000D03*
D11*
%TO.P,J15,2*%
%TO.N,GND*%
X71524000Y-94488000D03*
%TD*%
D12*
%TO.P,J11,1*%
%TO.N,Net-(IC1-Pad30)*%
X120904000Y-120396000D03*
D13*
%TO.P,J11,2*%
%TO.N,Net-(IC1-Pad29)*%
X120904000Y-122936000D03*
%TO.P,J11,3*%
%TO.N,Net-(IC1-Pad28)*%
X120904000Y-125476000D03*
%TO.P,J11,4*%
%TO.N,Net-(IC1-Pad27)*%
X120904000Y-128016000D03*
%TD*%
D10*
%TO.P,J9,1*%
%TO.N,+7.5V*%
X152908000Y-130048000D03*
D11*
%TO.P,J9,2*%
%TO.N,GND*%
X152908000Y-126088000D03*
%TD*%
D12*
%TO.P,J7,1*%
%TO.N,Net-(IC1-Pad5)*%
X99568000Y-141224000D03*
D13*
%TO.P,J7,2*%
%TO.N,Net-(IC1-Pad6)*%
X102108000Y-141224000D03*
%TO.P,J7,3*%
%TO.N,Net-(IC1-Pad7)*%
X104648000Y-141224000D03*
%TD*%
D12*
%TO.P,J6,1*%
%TO.N,Net-(IC1-Pad11)*%
X99568000Y-106680000D03*
D13*
%TO.P,J6,2*%
%TO.N,Net-(IC1-Pad12)*%
X102108000Y-106680000D03*
%TO.P,J6,3*%
%TO.N,Net-(IC1-Pad13)*%
X104648000Y-106680000D03*
%TD*%
D12*
%TO.P,J5,1*%
%TO.N,Net-(IC1-Pad8)*%
X78740000Y-106680000D03*
D13*
%TO.P,J5,2*%
%TO.N,Net-(IC1-Pad9)*%
X81280000Y-106680000D03*
%TO.P,J5,3*%
%TO.N,Net-(IC1-Pad10)*%
X83820000Y-106680000D03*
%TD*%
D12*
%TO.P,J4,1*%
%TO.N,Net-(IC1-Pad2)*%
X79248000Y-141224000D03*
D13*
%TO.P,J4,2*%
%TO.N,Net-(IC1-Pad3)*%
X81788000Y-141224000D03*
%TO.P,J4,3*%
%TO.N,Net-(IC1-Pad4)*%
X84328000Y-141224000D03*
%TD*%
D10*
%TO.P,J3,1*%
%TO.N,+7.5V*%
X112776000Y-94488000D03*
D11*
%TO.P,J3,2*%
%TO.N,GND*%
X116736000Y-94488000D03*
%TD*%
D10*
%TO.P,J2,1*%
%TO.N,+7.5V*%
X112776000Y-154432000D03*
D11*
%TO.P,J2,2*%
%TO.N,GND*%
X116736000Y-154432000D03*
%TD*%
D12*
%TO.P,J1,1*%
%TO.N,Net-(IC1-Pad16)*%
X99060000Y-120904000D03*
D13*
%TO.P,J1,2*%
%TO.N,Net-(IC1-Pad25)*%
X99060000Y-123444000D03*
%TO.P,J1,3*%
%TO.N,Net-(IC1-Pad26)*%
X99060000Y-125984000D03*
%TO.P,J1,4*%
%TO.N,GND*%
X99060000Y-128524000D03*
%TD*%
D12*
%TO.P,J12,1*%
%TO.N,+5V*%
X127000000Y-103632000D03*
D13*
%TO.P,J12,2*%
%TO.N,GND*%
X127000000Y-101092000D03*
%TO.P,J12,3*%
X127000000Y-98552000D03*
%TO.P,J12,4*%
%TO.N,VCC*%
X127000000Y-96012000D03*
%TD*%
D12*
%TO.P,J13,3*%
%TO.N,VCC*%
X156210000Y-108712000D03*
D13*
%TO.P,J13,4*%
%TO.N,GND*%
X156210000Y-111252000D03*
%TO.P,J13,2*%
X127000000Y-111252000D03*
D12*
%TO.P,J13,1*%
%TO.N,+3V3*%
X127000000Y-108712000D03*
%TD*%
D13*
%TO.P,J10,3*%
%TO.N,GND*%
X122936000Y-152400000D03*
%TO.P,J10,2*%
%TO.N,+3V3*%
X122936000Y-149860000D03*
D12*
%TO.P,J10,1*%
%TO.N,Net-(IC1-Pad21)*%
X122936000Y-147320000D03*
%TD*%
D14*
%TO.P,Teensy,34*%
%TO.N,GND*%
X79248000Y-119380000D03*
%TO.P,Teensy,33*%
%TO.N,Net-(IC1-Pad33)*%
X76708000Y-116840000D03*
%TO.P,Teensy,32*%
%TO.N,GND*%
X79248000Y-116840000D03*
%TO.P,Teensy,31*%
%TO.N,Net-(IC1-Pad31)*%
X81788000Y-116840000D03*
%TO.P,Teensy,30*%
%TO.N,Net-(IC1-Pad30)*%
X84328000Y-116840000D03*
%TO.P,Teensy,29*%
%TO.N,Net-(IC1-Pad29)*%
X86868000Y-116840000D03*
%TO.P,Teensy,28*%
%TO.N,Net-(IC1-Pad28)*%
X89408000Y-116840000D03*
%TO.P,Teensy,27*%
%TO.N,Net-(IC1-Pad27)*%
X91948000Y-116840000D03*
%TO.P,Teensy,26*%
%TO.N,Net-(IC1-Pad26)*%
X94488000Y-116840000D03*
%TO.P,Teensy,25*%
%TO.N,Net-(IC1-Pad25)*%
X97028000Y-116840000D03*
%TO.P,Teensy,24*%
%TO.N,Net-(IC1-Pad24)*%
X99568000Y-116840000D03*
%TO.P,Teensy,23*%
%TO.N,Net-(IC1-Pad23)*%
X102108000Y-116840000D03*
%TO.P,Teensy,22*%
%TO.N,Net-(IC1-Pad22)*%
X104648000Y-116840000D03*
%TO.P,Teensy,21*%
%TO.N,Net-(IC1-Pad21)*%
X107188000Y-116840000D03*
%TO.P,Teensy,20*%
%TO.N,Net-(IC1-Pad20)*%
X109728000Y-116840000D03*
%TO.P,Teensy,19*%
%TO.N,Net-(IC1-Pad19)*%
X109728000Y-119380000D03*
%TO.P,Teensy,18*%
%TO.N,Net-(IC1-Pad18)*%
X109728000Y-121920000D03*
%TO.P,Teensy,17*%
%TO.N,GND*%
X109728000Y-124460000D03*
%TO.P,Teensy,16*%
%TO.N,Net-(IC1-Pad16)*%
X109728000Y-127000000D03*
%TO.P,Teensy,15*%
%TO.N,Net-(IC1-Pad15)*%
X109728000Y-129540000D03*
%TO.P,Teensy,14*%
%TO.N,Net-(IC1-Pad14)*%
X109728000Y-132080000D03*
%TO.P,Teensy,13*%
%TO.N,Net-(IC1-Pad13)*%
X107188000Y-132080000D03*
%TO.P,Teensy,12*%
%TO.N,Net-(IC1-Pad12)*%
X104648000Y-132080000D03*
%TO.P,Teensy,11*%
%TO.N,Net-(IC1-Pad11)*%
X102108000Y-132080000D03*
%TO.P,Teensy,10*%
%TO.N,Net-(IC1-Pad10)*%
X99568000Y-132080000D03*
%TO.P,Teensy,9*%
%TO.N,Net-(IC1-Pad9)*%
X97028000Y-132080000D03*
%TO.P,Teensy,8*%
%TO.N,Net-(IC1-Pad8)*%
X94488000Y-132080000D03*
%TO.P,Teensy,7*%
%TO.N,Net-(IC1-Pad7)*%
X91948000Y-132080000D03*
%TO.P,Teensy,6*%
%TO.N,Net-(IC1-Pad6)*%
X89408000Y-132080000D03*
%TO.P,Teensy,5*%
%TO.N,Net-(IC1-Pad5)*%
X86868000Y-132080000D03*
%TO.P,Teensy,4*%
%TO.N,Net-(IC1-Pad4)*%
X84328000Y-132080000D03*
%TO.P,Teensy,3*%
%TO.N,Net-(IC1-Pad3)*%
X81788000Y-132080000D03*
%TO.P,Teensy,2*%
%TO.N,Net-(IC1-Pad2)*%
X79248000Y-132080000D03*
%TO.P,Teensy,1*%
%TO.N,GND*%
X76708000Y-132080000D03*
%TD*%
D15*
%TO.P,C1,2*%
%TO.N,GND*%
X137748000Y-123444000D03*
D16*
%TO.P,C1,1*%
%TO.N,VCC*%
X142748000Y-123444000D03*
%TD*%
D17*
%TO.N,Net-(IC1-Pad30)*%
X120904000Y-120396000D02*
X118872000Y-120396000D01*
X118872000Y-120396000D02*
X117856000Y-119380000D01*
X117856000Y-119380000D02*
X117856000Y-113284000D01*
X112802001Y-108230001D02*
X92990001Y-108230001D01*
X117856000Y-113284000D02*
X112802001Y-108230001D01*
X92990001Y-108230001D02*
X92964000Y-108204000D01*
X92964000Y-108204000D02*
X84328000Y-116840000D01*
%TO.N,Net-(IC1-Pad29)*%
X120904000Y-122936000D02*
X117348000Y-122936000D01*
X117348000Y-122936000D02*
X115824000Y-121412000D01*
X115824000Y-121412000D02*
X115824000Y-113792000D01*
X115824000Y-113792000D02*
X112268000Y-110236000D01*
X93472000Y-110236000D02*
X86868000Y-116840000D01*
X112268000Y-110236000D02*
X93472000Y-110236000D01*
%TO.N,Net-(IC1-Pad28)*%
X111760000Y-112268000D02*
X93980000Y-112268000D01*
X114300000Y-123444000D02*
X114300000Y-114808000D01*
X114300000Y-114808000D02*
X111760000Y-112268000D01*
X120904000Y-125476000D02*
X116332000Y-125476000D01*
X93980000Y-112268000D02*
X89408000Y-116840000D01*
X116332000Y-125476000D02*
X114300000Y-123444000D01*
%TO.N,Net-(IC1-Pad27)*%
X119380000Y-128016000D02*
X116332000Y-128016000D01*
X116332000Y-128016000D02*
X112776000Y-124460000D01*
X112776000Y-124460000D02*
X112776000Y-115824000D01*
X112776000Y-115824000D02*
X111252000Y-114300000D01*
X94488000Y-114300000D02*
X91948000Y-116840000D01*
X111252000Y-114300000D02*
X94488000Y-114300000D01*
X119380000Y-128016000D02*
X120904000Y-128016000D01*
%TO.N,Net-(IC1-Pad7)*%
X104648000Y-141224000D02*
X104648000Y-139192000D01*
X104648000Y-139192000D02*
X101600000Y-136144000D01*
X101600000Y-136144000D02*
X93980000Y-136144000D01*
X91948000Y-134112000D02*
X91948000Y-132080000D01*
X93980000Y-136144000D02*
X91948000Y-134112000D01*
%TO.N,Net-(IC1-Pad6)*%
X102108000Y-140021919D02*
X100770081Y-138684000D01*
X102108000Y-141224000D02*
X102108000Y-140021919D01*
X100770081Y-138684000D02*
X93472000Y-138684000D01*
X89408000Y-134620000D02*
X89408000Y-132080000D01*
X93472000Y-138684000D02*
X89408000Y-134620000D01*
%TO.N,Net-(IC1-Pad5)*%
X99568000Y-141224000D02*
X92964000Y-141224000D01*
X86868000Y-135128000D02*
X86868000Y-132080000D01*
X92964000Y-141224000D02*
X86868000Y-135128000D01*
%TO.N,Net-(IC1-Pad4)*%
X84328000Y-141224000D02*
X84328000Y-132080000D01*
%TO.N,Net-(IC1-Pad3)*%
X81788000Y-141224000D02*
X81788000Y-132080000D01*
%TO.N,Net-(IC1-Pad2)*%
X79248000Y-141224000D02*
X79248000Y-132080000D01*
%TO.N,GND*%
X140392000Y-126088000D02*
X137748000Y-123444000D01*
X152908000Y-126088000D02*
X140392000Y-126088000D01*
X152908000Y-114554000D02*
X156210000Y-111252000D01*
X152908000Y-117452000D02*
X152908000Y-114554000D01*
X133176000Y-128016000D02*
X137748000Y-123444000D01*
X127508000Y-128016000D02*
X133176000Y-128016000D01*
X120800000Y-98552000D02*
X116736000Y-94488000D01*
X127000000Y-98552000D02*
X120800000Y-98552000D01*
X120800000Y-98552000D02*
X110236000Y-98552000D01*
X107696000Y-96012000D02*
X100584000Y-96012000D01*
X110236000Y-98552000D02*
X107696000Y-96012000D01*
X73048000Y-96012000D02*
X71524000Y-94488000D01*
X79756000Y-96012000D02*
X73048000Y-96012000D01*
X118768000Y-152400000D02*
X116736000Y-154432000D01*
X122936000Y-152400000D02*
X118768000Y-152400000D01*
X100584000Y-155448000D02*
X79756000Y-155448000D01*
X72540000Y-155448000D02*
X71524000Y-154432000D01*
X79756000Y-155448000D02*
X72540000Y-155448000D01*
X79248000Y-119380000D02*
X79248000Y-116840000D01*
X79248000Y-116840000D02*
X86868000Y-109220000D01*
X86868000Y-99060000D02*
X83820000Y-96012000D01*
X86868000Y-109220000D02*
X86868000Y-99060000D01*
X100584000Y-96012000D02*
X83820000Y-96012000D01*
X83820000Y-96012000D02*
X79756000Y-96012000D01*
X71524000Y-97536000D02*
X73048000Y-96012000D01*
X71524000Y-154432000D02*
X71524000Y-97536000D01*
X76708000Y-121920000D02*
X79248000Y-119380000D01*
X76708000Y-132080000D02*
X76708000Y-121920000D01*
X109728000Y-124460000D02*
X107188000Y-124460000D01*
X103124000Y-128524000D02*
X99060000Y-128524000D01*
X107188000Y-124460000D02*
X103124000Y-128524000D01*
%TO.N,VCC*%
X144780000Y-121412000D02*
X142748000Y-123444000D01*
X152908000Y-121412000D02*
X144780000Y-121412000D01*
X144780000Y-121412000D02*
X144780000Y-117856000D01*
X153924000Y-108712000D02*
X156210000Y-108712000D01*
X144780000Y-117856000D02*
X153924000Y-108712000D01*
X156210000Y-108712000D02*
X156210000Y-106426000D01*
X156210000Y-106426000D02*
X151892000Y-102108000D01*
X151892000Y-102108000D02*
X142240000Y-102108000D01*
X136144000Y-96012000D02*
X127000000Y-96012000D01*
X142240000Y-102108000D02*
X136144000Y-96012000D01*
X139700000Y-120396000D02*
X127508000Y-120396000D01*
X142748000Y-123444000D02*
X139700000Y-120396000D01*
%TO.N,+7.5V*%
X112776000Y-94488000D02*
X110236000Y-94488000D01*
X110236000Y-94488000D02*
X106680000Y-90932000D01*
X71120000Y-90932000D02*
X67564000Y-94488000D01*
X106680000Y-90932000D02*
X71120000Y-90932000D01*
X67564000Y-154432000D02*
X67564000Y-94488000D01*
X67564000Y-154432000D02*
X67564000Y-155956000D01*
X67564000Y-155956000D02*
X69596000Y-157988000D01*
X69596000Y-157988000D02*
X111252000Y-157988000D01*
X112776000Y-156464000D02*
X112776000Y-154432000D01*
X111252000Y-157988000D02*
X112776000Y-156464000D01*
X152908000Y-130048000D02*
X152908000Y-133096000D01*
X152908000Y-133096000D02*
X144272000Y-141732000D01*
X144272000Y-141732000D02*
X117856000Y-141732000D01*
X112776000Y-146812000D02*
X112776000Y-154432000D01*
X117856000Y-141732000D02*
X112776000Y-146812000D01*
%TO.N,+3V3*%
X100584000Y-93472000D02*
X79756000Y-93472000D01*
X100584000Y-152908000D02*
X79756000Y-152908000D01*
%TD*%
M02*
