%TF.GenerationSoftware,KiCad,Pcbnew,5.1.10-88a1d61d58~88~ubuntu18.04.1*%
%TF.CreationDate,2022-01-24T00:07:05+01:00*%
%TF.ProjectId,catbot_electronics_board,7061766c-6f76-45f6-9d69-6e695f656c65,rev?*%
%TF.SameCoordinates,Original*%
%TF.FileFunction,Legend,Bot*%
%TF.FilePolarity,Positive*%
%FSLAX46Y46*%
G04 Gerber Fmt 4.6, Leading zero omitted, Abs format (unit mm)*
G04 Created by KiCad (PCBNEW 5.1.10-88a1d61d58~88~ubuntu18.04.1) date 2022-01-24 00:07:05*
%MOMM*%
%LPD*%
G01*
G04 APERTURE LIST*
%ADD10C,0.120000*%
%ADD11C,0.150000*%
G04 APERTURE END LIST*
D10*
%TO.C,J1*%
X124460000Y-108204000D02*
X97790000Y-108204000D01*
X124460000Y-141224000D02*
X124460000Y-108204000D01*
X97790000Y-141224000D02*
X124460000Y-141224000D01*
X97790000Y-108204000D02*
X97790000Y-141224000D01*
D11*
X100663333Y-116546380D02*
X100663333Y-117260666D01*
X100710952Y-117403523D01*
X100806190Y-117498761D01*
X100949047Y-117546380D01*
X101044285Y-117546380D01*
X99663333Y-117546380D02*
X100234761Y-117546380D01*
X99949047Y-117546380D02*
X99949047Y-116546380D01*
X100044285Y-116689238D01*
X100139523Y-116784476D01*
X100234761Y-116832095D01*
X106822380Y-140406380D02*
X106822380Y-139739714D01*
X106822380Y-139406380D02*
X106870000Y-139454000D01*
X106822380Y-139501619D01*
X106774761Y-139454000D01*
X106822380Y-139406380D01*
X106822380Y-139501619D01*
X106346190Y-140406380D02*
X106346190Y-139739714D01*
X106346190Y-139834952D02*
X106298571Y-139787333D01*
X106203333Y-139739714D01*
X106060476Y-139739714D01*
X105965238Y-139787333D01*
X105917619Y-139882571D01*
X105917619Y-140406380D01*
X105917619Y-139882571D02*
X105870000Y-139787333D01*
X105774761Y-139739714D01*
X105631904Y-139739714D01*
X105536666Y-139787333D01*
X105489047Y-139882571D01*
X105489047Y-140406380D01*
X104584285Y-139739714D02*
X104584285Y-140406380D01*
X105012857Y-139739714D02*
X105012857Y-140263523D01*
X104965238Y-140358761D01*
X104870000Y-140406380D01*
X104727142Y-140406380D01*
X104631904Y-140358761D01*
X104584285Y-140311142D01*
X104346190Y-140501619D02*
X103584285Y-140501619D01*
X103393809Y-140358761D02*
X103298571Y-140406380D01*
X103108095Y-140406380D01*
X103012857Y-140358761D01*
X102965238Y-140263523D01*
X102965238Y-140215904D01*
X103012857Y-140120666D01*
X103108095Y-140073047D01*
X103250952Y-140073047D01*
X103346190Y-140025428D01*
X103393809Y-139930190D01*
X103393809Y-139882571D01*
X103346190Y-139787333D01*
X103250952Y-139739714D01*
X103108095Y-139739714D01*
X103012857Y-139787333D01*
X102155714Y-140358761D02*
X102250952Y-140406380D01*
X102441428Y-140406380D01*
X102536666Y-140358761D01*
X102584285Y-140263523D01*
X102584285Y-139882571D01*
X102536666Y-139787333D01*
X102441428Y-139739714D01*
X102250952Y-139739714D01*
X102155714Y-139787333D01*
X102108095Y-139882571D01*
X102108095Y-139977809D01*
X102584285Y-140073047D01*
X101679523Y-139739714D02*
X101679523Y-140406380D01*
X101679523Y-139834952D02*
X101631904Y-139787333D01*
X101536666Y-139739714D01*
X101393809Y-139739714D01*
X101298571Y-139787333D01*
X101250952Y-139882571D01*
X101250952Y-140406380D01*
X100822380Y-140358761D02*
X100727142Y-140406380D01*
X100536666Y-140406380D01*
X100441428Y-140358761D01*
X100393809Y-140263523D01*
X100393809Y-140215904D01*
X100441428Y-140120666D01*
X100536666Y-140073047D01*
X100679523Y-140073047D01*
X100774761Y-140025428D01*
X100822380Y-139930190D01*
X100822380Y-139882571D01*
X100774761Y-139787333D01*
X100679523Y-139739714D01*
X100536666Y-139739714D01*
X100441428Y-139787333D01*
X99822380Y-140406380D02*
X99917619Y-140358761D01*
X99965238Y-140311142D01*
X100012857Y-140215904D01*
X100012857Y-139930190D01*
X99965238Y-139834952D01*
X99917619Y-139787333D01*
X99822380Y-139739714D01*
X99679523Y-139739714D01*
X99584285Y-139787333D01*
X99536666Y-139834952D01*
X99489047Y-139930190D01*
X99489047Y-140215904D01*
X99536666Y-140311142D01*
X99584285Y-140358761D01*
X99679523Y-140406380D01*
X99822380Y-140406380D01*
X99060476Y-140406380D02*
X99060476Y-139739714D01*
X99060476Y-139930190D02*
X99012857Y-139834952D01*
X98965238Y-139787333D01*
X98870000Y-139739714D01*
X98774761Y-139739714D01*
X98512380Y-124380666D02*
X99226666Y-124380666D01*
X99369523Y-124333047D01*
X99464761Y-124237809D01*
X99512380Y-124094952D01*
X99512380Y-123999714D01*
X99512380Y-125380666D02*
X99512380Y-124809238D01*
X99512380Y-125094952D02*
X98512380Y-125094952D01*
X98655238Y-124999714D01*
X98750476Y-124904476D01*
X98798095Y-124809238D01*
X103989047Y-123848761D02*
X103893809Y-123896380D01*
X103703333Y-123896380D01*
X103608095Y-123848761D01*
X103560476Y-123753523D01*
X103560476Y-123705904D01*
X103608095Y-123610666D01*
X103703333Y-123563047D01*
X103846190Y-123563047D01*
X103941428Y-123515428D01*
X103989047Y-123420190D01*
X103989047Y-123372571D01*
X103941428Y-123277333D01*
X103846190Y-123229714D01*
X103703333Y-123229714D01*
X103608095Y-123277333D01*
X102703333Y-123896380D02*
X102703333Y-122896380D01*
X102703333Y-123848761D02*
X102798571Y-123896380D01*
X102989047Y-123896380D01*
X103084285Y-123848761D01*
X103131904Y-123801142D01*
X103179523Y-123705904D01*
X103179523Y-123420190D01*
X103131904Y-123324952D01*
X103084285Y-123277333D01*
X102989047Y-123229714D01*
X102798571Y-123229714D01*
X102703333Y-123277333D01*
X101798571Y-123896380D02*
X101798571Y-123372571D01*
X101846190Y-123277333D01*
X101941428Y-123229714D01*
X102131904Y-123229714D01*
X102227142Y-123277333D01*
X101798571Y-123848761D02*
X101893809Y-123896380D01*
X102131904Y-123896380D01*
X102227142Y-123848761D01*
X102274761Y-123753523D01*
X102274761Y-123658285D01*
X102227142Y-123563047D01*
X102131904Y-123515428D01*
X101893809Y-123515428D01*
X101798571Y-123467809D01*
X103774761Y-121308761D02*
X103679523Y-121356380D01*
X103489047Y-121356380D01*
X103393809Y-121308761D01*
X103346190Y-121213523D01*
X103346190Y-121165904D01*
X103393809Y-121070666D01*
X103489047Y-121023047D01*
X103631904Y-121023047D01*
X103727142Y-120975428D01*
X103774761Y-120880190D01*
X103774761Y-120832571D01*
X103727142Y-120737333D01*
X103631904Y-120689714D01*
X103489047Y-120689714D01*
X103393809Y-120737333D01*
X102489047Y-121308761D02*
X102584285Y-121356380D01*
X102774761Y-121356380D01*
X102870000Y-121308761D01*
X102917619Y-121261142D01*
X102965238Y-121165904D01*
X102965238Y-120880190D01*
X102917619Y-120784952D01*
X102870000Y-120737333D01*
X102774761Y-120689714D01*
X102584285Y-120689714D01*
X102489047Y-120737333D01*
X101917619Y-121356380D02*
X102012857Y-121308761D01*
X102060476Y-121213523D01*
X102060476Y-120356380D01*
X104298571Y-125436380D02*
X103679523Y-125436380D01*
X104012857Y-125817333D01*
X103870000Y-125817333D01*
X103774761Y-125864952D01*
X103727142Y-125912571D01*
X103679523Y-126007809D01*
X103679523Y-126245904D01*
X103727142Y-126341142D01*
X103774761Y-126388761D01*
X103870000Y-126436380D01*
X104155714Y-126436380D01*
X104250952Y-126388761D01*
X104298571Y-126341142D01*
X103250952Y-126341142D02*
X103203333Y-126388761D01*
X103250952Y-126436380D01*
X103298571Y-126388761D01*
X103250952Y-126341142D01*
X103250952Y-126436380D01*
X102870000Y-125436380D02*
X102250952Y-125436380D01*
X102584285Y-125817333D01*
X102441428Y-125817333D01*
X102346190Y-125864952D01*
X102298571Y-125912571D01*
X102250952Y-126007809D01*
X102250952Y-126245904D01*
X102298571Y-126341142D01*
X102346190Y-126388761D01*
X102441428Y-126436380D01*
X102727142Y-126436380D01*
X102822380Y-126388761D01*
X102870000Y-126341142D01*
X101917619Y-125769714D02*
X101679523Y-126436380D01*
X101441428Y-125769714D01*
X103631904Y-128024000D02*
X103727142Y-127976380D01*
X103870000Y-127976380D01*
X104012857Y-128024000D01*
X104108095Y-128119238D01*
X104155714Y-128214476D01*
X104203333Y-128404952D01*
X104203333Y-128547809D01*
X104155714Y-128738285D01*
X104108095Y-128833523D01*
X104012857Y-128928761D01*
X103870000Y-128976380D01*
X103774761Y-128976380D01*
X103631904Y-128928761D01*
X103584285Y-128881142D01*
X103584285Y-128547809D01*
X103774761Y-128547809D01*
X103155714Y-128976380D02*
X103155714Y-127976380D01*
X102584285Y-128976380D01*
X102584285Y-127976380D01*
X102108095Y-128976380D02*
X102108095Y-127976380D01*
X101870000Y-127976380D01*
X101727142Y-128024000D01*
X101631904Y-128119238D01*
X101584285Y-128214476D01*
X101536666Y-128404952D01*
X101536666Y-128547809D01*
X101584285Y-128738285D01*
X101631904Y-128833523D01*
X101727142Y-128928761D01*
X101870000Y-128976380D01*
X102108095Y-128976380D01*
%TD*%
M02*
