M48
; DRILL file {KiCad 5.1.10-88a1d61d58~88~ubuntu18.04.1} date Sun Jan 23 15:17:46 2022
; FORMAT={-:-/ absolute / metric / decimal}
; #@! TF.CreationDate,2022-01-23T15:17:46+01:00
; #@! TF.GenerationSoftware,Kicad,Pcbnew,5.1.10-88a1d61d58~88~ubuntu18.04.1
FMAT,2
METRIC
T1C0.500
T2C1.000
T3C1.110
T4C1.200
T5C1.800
T6C3.500
%
G90
G05
T1
X29.379Y-25.4
X30.148Y-23.544
X30.148Y-27.256
X32.004Y-22.775
X32.004Y-28.025
X33.86Y-23.544
X33.86Y-27.256
X34.629Y-25.4
X43.603Y-64.008
X44.372Y-62.152
X44.372Y-65.864
X46.228Y-61.383
X46.228Y-66.633
X48.084Y-62.152
X48.084Y-65.864
X48.853Y-64.008
T2
X20.828Y-31.496
X23.368Y-31.496
X25.908Y-31.496
X29.972Y-64.516
X29.972Y-73.66
X29.972Y-76.2
X32.512Y-64.516
X33.528Y-16.764
X33.528Y-19.304
X33.528Y-31.496
X35.052Y-64.516
X36.068Y-31.496
X36.068Y-46.736
X36.068Y-49.276
X36.068Y-51.816
X36.068Y-54.356
X37.592Y-64.516
X38.608Y-31.496
X45.593Y-31.496
X48.133Y-31.496
X50.673Y-31.496
X53.848Y-73.66
X53.848Y-76.2
X58.42Y-73.66
X58.42Y-76.2
X59.944Y-31.496
X62.484Y-16.256
X62.484Y-18.796
X62.484Y-31.496
X65.024Y-31.496
X66.548Y-14.732
X66.548Y-17.272
X66.548Y-19.812
X66.548Y-22.352
X71.628Y-35.56
X71.628Y-38.1
X71.628Y-40.64
X87.63Y-73.66
X87.63Y-76.2
T3
X22.098Y-42.926
X22.098Y-58.166
X24.638Y-42.926
X24.638Y-55.626
X24.638Y-58.166
X27.178Y-42.926
X27.178Y-58.166
X29.718Y-42.926
X29.718Y-58.166
X32.258Y-42.926
X32.258Y-58.166
X34.798Y-42.926
X34.798Y-58.166
X37.338Y-42.926
X37.338Y-58.166
X39.878Y-42.926
X39.878Y-58.166
X42.418Y-42.926
X42.418Y-58.166
X44.958Y-42.926
X44.958Y-58.166
X47.498Y-42.926
X47.498Y-58.166
X50.038Y-42.926
X50.038Y-58.166
X52.578Y-42.926
X52.578Y-58.166
X55.118Y-42.926
X55.118Y-45.466
X55.118Y-48.006
X55.118Y-50.546
X55.118Y-53.086
X55.118Y-55.626
X55.118Y-58.166
T4
X78.74Y-60.532
X78.74Y-65.532
T5
X17.78Y-74.676
X19.916Y-17.78
X21.74Y-74.676
X23.876Y-17.78
X42.268Y-74.676
X46.228Y-74.676
X53.848Y-17.272
X57.808Y-17.272
X66.04Y-61.064
X66.04Y-65.024
X91.44Y-61.064
X91.44Y-65.024
X91.948Y-18.796
X91.948Y-22.756
T6
X32.004Y-25.4
X46.228Y-64.008
T0
M30
