%TF.GenerationSoftware,KiCad,Pcbnew,5.1.10-88a1d61d58~88~ubuntu18.04.1*%
%TF.CreationDate,2022-01-23T15:24:31+01:00*%
%TF.ProjectId,catbot_electronics_board,7061766c-6f76-45f6-9d69-6e695f656c65,rev?*%
%TF.SameCoordinates,Original*%
%TF.FileFunction,Copper,L1,Top*%
%TF.FilePolarity,Positive*%
%FSLAX46Y46*%
G04 Gerber Fmt 4.6, Leading zero omitted, Abs format (unit mm)*
G04 Created by KiCad (PCBNEW 5.1.10-88a1d61d58~88~ubuntu18.04.1) date 2022-01-23 15:24:31*
%MOMM*%
%LPD*%
G01*
G04 APERTURE LIST*
%TA.AperFunction,ComponentPad*%
%ADD10C,0.800000*%
%TD*%
%TA.AperFunction,ComponentPad*%
%ADD11C,7.000000*%
%TD*%
%TA.AperFunction,ComponentPad*%
%ADD12O,1.700000X1.700000*%
%TD*%
%TA.AperFunction,ComponentPad*%
%ADD13R,1.700000X1.700000*%
%TD*%
%TA.AperFunction,ComponentPad*%
%ADD14C,2.700000*%
%TD*%
%TA.AperFunction,ComponentPad*%
%ADD15R,2.700000X2.700000*%
%TD*%
%TA.AperFunction,ComponentPad*%
%ADD16C,1.665000*%
%TD*%
%TA.AperFunction,ComponentPad*%
%ADD17C,2.400000*%
%TD*%
%TA.AperFunction,ComponentPad*%
%ADD18R,2.400000X2.400000*%
%TD*%
G04 APERTURE END LIST*
D10*
%TO.P,REF\u002A\u002A,1*%
%TO.N,N/C*%
X48084155Y-65864155D03*
X46228000Y-66633000D03*
X44371845Y-65864155D03*
X43603000Y-64008000D03*
X44371845Y-62151845D03*
X46228000Y-61383000D03*
X48084155Y-62151845D03*
X48853000Y-64008000D03*
D11*
X46228000Y-64008000D03*
%TD*%
D10*
%TO.P,REF\u002A\u002A,1*%
%TO.N,N/C*%
X33860155Y-27256155D03*
X32004000Y-28025000D03*
X30147845Y-27256155D03*
X29379000Y-25400000D03*
X30147845Y-23543845D03*
X32004000Y-22775000D03*
X33860155Y-23543845D03*
X34629000Y-25400000D03*
D11*
X32004000Y-25400000D03*
%TD*%
D12*
%TO.P,J6,3*%
%TO.N,Net-(IC1-Pad13)*%
X65024000Y-31496000D03*
%TO.P,J6,2*%
%TO.N,Net-(IC1-Pad12)*%
X62484000Y-31496000D03*
D13*
%TO.P,J6,1*%
%TO.N,Net-(IC1-Pad11)*%
X59944000Y-31496000D03*
%TD*%
D12*
%TO.P,J12,4*%
%TO.N,VCC*%
X66548000Y-22352000D03*
%TO.P,J12,3*%
%TO.N,GND*%
X66548000Y-19812000D03*
%TO.P,J12,2*%
X66548000Y-17272000D03*
D13*
%TO.P,J12,1*%
%TO.N,+5V*%
X66548000Y-14732000D03*
%TD*%
D12*
%TO.P,J20,2*%
%TO.N,GND*%
X62484000Y-16256000D03*
D13*
%TO.P,J20,1*%
%TO.N,+3V3*%
X62484000Y-18796000D03*
%TD*%
D14*
%TO.P,J16,2*%
%TO.N,GND*%
X91948000Y-22756000D03*
D15*
%TO.P,J16,1*%
%TO.N,+5V*%
X91948000Y-18796000D03*
%TD*%
D16*
%TO.P,IC1,34*%
%TO.N,GND*%
X24638000Y-55626000D03*
%TO.P,IC1,33*%
%TO.N,Net-(IC1-Pad33)*%
X22098000Y-58166000D03*
%TO.P,IC1,32*%
%TO.N,GND*%
X24638000Y-58166000D03*
%TO.P,IC1,31*%
%TO.N,Net-(IC1-Pad31)*%
X27178000Y-58166000D03*
%TO.P,IC1,30*%
%TO.N,Net-(IC1-Pad30)*%
X29718000Y-58166000D03*
%TO.P,IC1,29*%
%TO.N,Net-(IC1-Pad29)*%
X32258000Y-58166000D03*
%TO.P,IC1,28*%
%TO.N,Net-(IC1-Pad28)*%
X34798000Y-58166000D03*
%TO.P,IC1,27*%
%TO.N,Net-(IC1-Pad27)*%
X37338000Y-58166000D03*
%TO.P,IC1,26*%
%TO.N,Net-(IC1-Pad26)*%
X39878000Y-58166000D03*
%TO.P,IC1,25*%
%TO.N,Net-(IC1-Pad25)*%
X42418000Y-58166000D03*
%TO.P,IC1,24*%
%TO.N,Net-(IC1-Pad24)*%
X44958000Y-58166000D03*
%TO.P,IC1,23*%
%TO.N,Net-(IC1-Pad23)*%
X47498000Y-58166000D03*
%TO.P,IC1,22*%
%TO.N,Net-(IC1-Pad22)*%
X50038000Y-58166000D03*
%TO.P,IC1,21*%
%TO.N,Net-(IC1-Pad21)*%
X52578000Y-58166000D03*
%TO.P,IC1,20*%
%TO.N,Net-(IC1-Pad20)*%
X55118000Y-58166000D03*
%TO.P,IC1,19*%
%TO.N,Net-(IC1-Pad19)*%
X55118000Y-55626000D03*
%TO.P,IC1,18*%
%TO.N,Net-(IC1-Pad18)*%
X55118000Y-53086000D03*
%TO.P,IC1,17*%
%TO.N,GND*%
X55118000Y-50546000D03*
%TO.P,IC1,16*%
%TO.N,Net-(IC1-Pad16)*%
X55118000Y-48006000D03*
%TO.P,IC1,15*%
%TO.N,Net-(IC1-Pad15)*%
X55118000Y-45466000D03*
%TO.P,IC1,14*%
%TO.N,Net-(IC1-Pad14)*%
X55118000Y-42926000D03*
%TO.P,IC1,13*%
%TO.N,Net-(IC1-Pad13)*%
X52578000Y-42926000D03*
%TO.P,IC1,12*%
%TO.N,Net-(IC1-Pad12)*%
X50038000Y-42926000D03*
%TO.P,IC1,11*%
%TO.N,Net-(IC1-Pad11)*%
X47498000Y-42926000D03*
%TO.P,IC1,10*%
%TO.N,Net-(IC1-Pad10)*%
X44958000Y-42926000D03*
%TO.P,IC1,9*%
%TO.N,Net-(IC1-Pad9)*%
X42418000Y-42926000D03*
%TO.P,IC1,8*%
%TO.N,Net-(IC1-Pad8)*%
X39878000Y-42926000D03*
%TO.P,IC1,7*%
%TO.N,Net-(IC1-Pad7)*%
X37338000Y-42926000D03*
%TO.P,IC1,6*%
%TO.N,Net-(IC1-Pad6)*%
X34798000Y-42926000D03*
%TO.P,IC1,5*%
%TO.N,Net-(IC1-Pad5)*%
X32258000Y-42926000D03*
%TO.P,IC1,4*%
%TO.N,Net-(IC1-Pad4)*%
X29718000Y-42926000D03*
%TO.P,IC1,3*%
%TO.N,Net-(IC1-Pad3)*%
X27178000Y-42926000D03*
%TO.P,IC1,2*%
%TO.N,Net-(IC1-Pad2)*%
X24638000Y-42926000D03*
%TO.P,IC1,1*%
%TO.N,GND*%
X22098000Y-42926000D03*
%TD*%
D14*
%TO.P,J9,2*%
%TO.N,GND*%
X57808000Y-17272000D03*
D15*
%TO.P,J9,1*%
%TO.N,+7.5V*%
X53848000Y-17272000D03*
%TD*%
D12*
%TO.P,J5,3*%
%TO.N,Net-(IC1-Pad10)*%
X50673000Y-31496000D03*
%TO.P,J5,2*%
%TO.N,Net-(IC1-Pad9)*%
X48133000Y-31496000D03*
D13*
%TO.P,J5,1*%
%TO.N,Net-(IC1-Pad8)*%
X45593000Y-31496000D03*
%TD*%
D12*
%TO.P,J10,3*%
%TO.N,GND*%
X71628000Y-35560000D03*
%TO.P,J10,2*%
%TO.N,+3V3*%
X71628000Y-38100000D03*
D13*
%TO.P,J10,1*%
%TO.N,Net-(IC1-Pad21)*%
X71628000Y-40640000D03*
%TD*%
%TO.P,J13,3*%
%TO.N,VCC*%
X87630000Y-76200000D03*
D12*
%TO.P,J13,4*%
%TO.N,GND*%
X87630000Y-73660000D03*
%TO.P,J13,2*%
X58420000Y-73660000D03*
D13*
%TO.P,J13,1*%
%TO.N,+3V3*%
X58420000Y-76200000D03*
%TD*%
D12*
%TO.P,J19,2*%
%TO.N,GND*%
X33528000Y-16764000D03*
D13*
%TO.P,J19,1*%
%TO.N,+3V3*%
X33528000Y-19304000D03*
%TD*%
D12*
%TO.P,J18,2*%
%TO.N,GND*%
X53848000Y-73660000D03*
D13*
%TO.P,J18,1*%
%TO.N,+3V3*%
X53848000Y-76200000D03*
%TD*%
D12*
%TO.P,J17,2*%
%TO.N,GND*%
X29972000Y-73660000D03*
D13*
%TO.P,J17,1*%
%TO.N,+3V3*%
X29972000Y-76200000D03*
%TD*%
D14*
%TO.P,J15,2*%
%TO.N,GND*%
X19916000Y-17780000D03*
D15*
%TO.P,J15,1*%
%TO.N,+7.5V*%
X23876000Y-17780000D03*
%TD*%
D14*
%TO.P,J14,2*%
%TO.N,GND*%
X66040000Y-61064000D03*
D15*
%TO.P,J14,1*%
%TO.N,VCC*%
X66040000Y-65024000D03*
%TD*%
D12*
%TO.P,J11,4*%
%TO.N,Net-(IC1-Pad27)*%
X37592000Y-64516000D03*
%TO.P,J11,3*%
%TO.N,Net-(IC1-Pad28)*%
X35052000Y-64516000D03*
%TO.P,J11,2*%
%TO.N,Net-(IC1-Pad29)*%
X32512000Y-64516000D03*
D13*
%TO.P,J11,1*%
%TO.N,Net-(IC1-Pad30)*%
X29972000Y-64516000D03*
%TD*%
D14*
%TO.P,J8,2*%
%TO.N,GND*%
X21740000Y-74676000D03*
D15*
%TO.P,J8,1*%
%TO.N,+7.5V*%
X17780000Y-74676000D03*
%TD*%
D12*
%TO.P,J7,3*%
%TO.N,Net-(IC1-Pad7)*%
X38608000Y-31496000D03*
%TO.P,J7,2*%
%TO.N,Net-(IC1-Pad6)*%
X36068000Y-31496000D03*
D13*
%TO.P,J7,1*%
%TO.N,Net-(IC1-Pad5)*%
X33528000Y-31496000D03*
%TD*%
D12*
%TO.P,J4,3*%
%TO.N,Net-(IC1-Pad4)*%
X25908000Y-31496000D03*
%TO.P,J4,2*%
%TO.N,Net-(IC1-Pad3)*%
X23368000Y-31496000D03*
D13*
%TO.P,J4,1*%
%TO.N,Net-(IC1-Pad2)*%
X20828000Y-31496000D03*
%TD*%
D14*
%TO.P,J3,2*%
%TO.N,GND*%
X42268000Y-74676000D03*
D15*
%TO.P,J3,1*%
%TO.N,+7.5V*%
X46228000Y-74676000D03*
%TD*%
D14*
%TO.P,J2,2*%
%TO.N,GND*%
X91440000Y-61064000D03*
D15*
%TO.P,J2,1*%
%TO.N,+7.5V*%
X91440000Y-65024000D03*
%TD*%
D12*
%TO.P,J1,4*%
%TO.N,GND*%
X36068000Y-54356000D03*
%TO.P,J1,3*%
%TO.N,Net-(IC1-Pad26)*%
X36068000Y-51816000D03*
%TO.P,J1,2*%
%TO.N,Net-(IC1-Pad25)*%
X36068000Y-49276000D03*
D13*
%TO.P,J1,1*%
%TO.N,Net-(IC1-Pad16)*%
X36068000Y-46736000D03*
%TD*%
D17*
%TO.P,C1,2*%
%TO.N,GND*%
X78740000Y-60532000D03*
D18*
%TO.P,C1,1*%
%TO.N,VCC*%
X78740000Y-65532000D03*
%TD*%
M02*
