%TF.GenerationSoftware,KiCad,Pcbnew,5.1.10-88a1d61d58~88~ubuntu18.04.1*%
%TF.CreationDate,2022-01-23T15:24:31+01:00*%
%TF.ProjectId,catbot_electronics_board,7061766c-6f76-45f6-9d69-6e695f656c65,rev?*%
%TF.SameCoordinates,Original*%
%TF.FileFunction,Soldermask,Top*%
%TF.FilePolarity,Negative*%
%FSLAX46Y46*%
G04 Gerber Fmt 4.6, Leading zero omitted, Abs format (unit mm)*
G04 Created by KiCad (PCBNEW 5.1.10-88a1d61d58~88~ubuntu18.04.1) date 2022-01-23 15:24:31*
%MOMM*%
%LPD*%
G01*
G04 APERTURE LIST*
%ADD10C,0.800000*%
%ADD11C,7.000000*%
%ADD12O,1.700000X1.700000*%
%ADD13R,1.700000X1.700000*%
%ADD14C,2.700000*%
%ADD15R,2.700000X2.700000*%
%ADD16C,1.665000*%
%ADD17C,2.400000*%
%ADD18R,2.400000X2.400000*%
G04 APERTURE END LIST*
D10*
%TO.C,REF\u002A\u002A*%
X48084155Y-65864155D03*
X46228000Y-66633000D03*
X44371845Y-65864155D03*
X43603000Y-64008000D03*
X44371845Y-62151845D03*
X46228000Y-61383000D03*
X48084155Y-62151845D03*
X48853000Y-64008000D03*
D11*
X46228000Y-64008000D03*
%TD*%
D10*
%TO.C,REF\u002A\u002A*%
X33860155Y-27256155D03*
X32004000Y-28025000D03*
X30147845Y-27256155D03*
X29379000Y-25400000D03*
X30147845Y-23543845D03*
X32004000Y-22775000D03*
X33860155Y-23543845D03*
X34629000Y-25400000D03*
D11*
X32004000Y-25400000D03*
%TD*%
D12*
%TO.C,J6*%
X65024000Y-31496000D03*
X62484000Y-31496000D03*
D13*
X59944000Y-31496000D03*
%TD*%
D12*
%TO.C,J12*%
X66548000Y-22352000D03*
X66548000Y-19812000D03*
X66548000Y-17272000D03*
D13*
X66548000Y-14732000D03*
%TD*%
D12*
%TO.C,J20*%
X62484000Y-16256000D03*
D13*
X62484000Y-18796000D03*
%TD*%
D14*
%TO.C,J16*%
X91948000Y-22756000D03*
D15*
X91948000Y-18796000D03*
%TD*%
D16*
%TO.C,IC1*%
X24638000Y-55626000D03*
X22098000Y-58166000D03*
X24638000Y-58166000D03*
X27178000Y-58166000D03*
X29718000Y-58166000D03*
X32258000Y-58166000D03*
X34798000Y-58166000D03*
X37338000Y-58166000D03*
X39878000Y-58166000D03*
X42418000Y-58166000D03*
X44958000Y-58166000D03*
X47498000Y-58166000D03*
X50038000Y-58166000D03*
X52578000Y-58166000D03*
X55118000Y-58166000D03*
X55118000Y-55626000D03*
X55118000Y-53086000D03*
X55118000Y-50546000D03*
X55118000Y-48006000D03*
X55118000Y-45466000D03*
X55118000Y-42926000D03*
X52578000Y-42926000D03*
X50038000Y-42926000D03*
X47498000Y-42926000D03*
X44958000Y-42926000D03*
X42418000Y-42926000D03*
X39878000Y-42926000D03*
X37338000Y-42926000D03*
X34798000Y-42926000D03*
X32258000Y-42926000D03*
X29718000Y-42926000D03*
X27178000Y-42926000D03*
X24638000Y-42926000D03*
X22098000Y-42926000D03*
%TD*%
D14*
%TO.C,J9*%
X57808000Y-17272000D03*
D15*
X53848000Y-17272000D03*
%TD*%
D12*
%TO.C,J5*%
X50673000Y-31496000D03*
X48133000Y-31496000D03*
D13*
X45593000Y-31496000D03*
%TD*%
D12*
%TO.C,J10*%
X71628000Y-35560000D03*
X71628000Y-38100000D03*
D13*
X71628000Y-40640000D03*
%TD*%
%TO.C,J13*%
X87630000Y-76200000D03*
D12*
X87630000Y-73660000D03*
X58420000Y-73660000D03*
D13*
X58420000Y-76200000D03*
%TD*%
D12*
%TO.C,J19*%
X33528000Y-16764000D03*
D13*
X33528000Y-19304000D03*
%TD*%
D12*
%TO.C,J18*%
X53848000Y-73660000D03*
D13*
X53848000Y-76200000D03*
%TD*%
D12*
%TO.C,J17*%
X29972000Y-73660000D03*
D13*
X29972000Y-76200000D03*
%TD*%
D14*
%TO.C,J15*%
X19916000Y-17780000D03*
D15*
X23876000Y-17780000D03*
%TD*%
D14*
%TO.C,J14*%
X66040000Y-61064000D03*
D15*
X66040000Y-65024000D03*
%TD*%
D12*
%TO.C,J11*%
X37592000Y-64516000D03*
X35052000Y-64516000D03*
X32512000Y-64516000D03*
D13*
X29972000Y-64516000D03*
%TD*%
D14*
%TO.C,J8*%
X21740000Y-74676000D03*
D15*
X17780000Y-74676000D03*
%TD*%
D12*
%TO.C,J7*%
X38608000Y-31496000D03*
X36068000Y-31496000D03*
D13*
X33528000Y-31496000D03*
%TD*%
D12*
%TO.C,J4*%
X25908000Y-31496000D03*
X23368000Y-31496000D03*
D13*
X20828000Y-31496000D03*
%TD*%
D14*
%TO.C,J3*%
X42268000Y-74676000D03*
D15*
X46228000Y-74676000D03*
%TD*%
D14*
%TO.C,J2*%
X91440000Y-61064000D03*
D15*
X91440000Y-65024000D03*
%TD*%
D12*
%TO.C,J1*%
X36068000Y-54356000D03*
X36068000Y-51816000D03*
X36068000Y-49276000D03*
D13*
X36068000Y-46736000D03*
%TD*%
D17*
%TO.C,C1*%
X78740000Y-60532000D03*
D18*
X78740000Y-65532000D03*
%TD*%
M02*
