%TF.GenerationSoftware,KiCad,Pcbnew,5.1.10-88a1d61d58~88~ubuntu18.04.1*%
%TF.CreationDate,2022-01-23T15:24:31+01:00*%
%TF.ProjectId,catbot_electronics_board,7061766c-6f76-45f6-9d69-6e695f656c65,rev?*%
%TF.SameCoordinates,Original*%
%TF.FileFunction,Legend,Bot*%
%TF.FilePolarity,Positive*%
%FSLAX46Y46*%
G04 Gerber Fmt 4.6, Leading zero omitted, Abs format (unit mm)*
G04 Created by KiCad (PCBNEW 5.1.10-88a1d61d58~88~ubuntu18.04.1) date 2022-01-23 15:24:31*
%MOMM*%
%LPD*%
G01*
G04 APERTURE LIST*
%ADD10C,0.120000*%
%ADD11C,0.200000*%
%ADD12C,0.100000*%
%ADD13C,0.150000*%
%ADD14C,0.254000*%
G04 APERTURE END LIST*
D10*
%TO.C,J6*%
X66354000Y-30166000D02*
X66354000Y-32826000D01*
X61214000Y-30166000D02*
X66354000Y-30166000D01*
X61214000Y-32826000D02*
X66354000Y-32826000D01*
X61214000Y-30166000D02*
X61214000Y-32826000D01*
X59944000Y-30166000D02*
X58614000Y-30166000D01*
X58614000Y-30166000D02*
X58614000Y-31496000D01*
%TO.C,J12*%
X86868000Y-13462000D02*
X67818000Y-13462000D01*
X86868000Y-28702000D02*
X86868000Y-13462000D01*
X65278000Y-28702000D02*
X86868000Y-28702000D01*
X65218000Y-23682000D02*
X65278000Y-28702000D01*
X67878000Y-13402000D02*
X66548000Y-13402000D01*
X67878000Y-14732000D02*
X67878000Y-13402000D01*
X67878000Y-16002000D02*
X65218000Y-16002000D01*
X65218000Y-16002000D02*
X65218000Y-23682000D01*
X67878000Y-16002000D02*
X67878000Y-23682000D01*
X67878000Y-23682000D02*
X65218000Y-23682000D01*
%TO.C,J20*%
X62484000Y-20126000D02*
X63814000Y-20126000D01*
X63814000Y-20126000D02*
X63814000Y-18796000D01*
X63814000Y-17526000D02*
X63814000Y-14926000D01*
X61154000Y-14926000D02*
X63814000Y-14926000D01*
X61154000Y-17526000D02*
X61154000Y-14926000D01*
X61154000Y-17526000D02*
X63814000Y-17526000D01*
D11*
%TO.C,J16*%
X96198000Y-18796000D02*
X96198000Y-24706000D01*
X96198000Y-24706000D02*
X87698000Y-24706000D01*
X87698000Y-24706000D02*
X87698000Y-16846000D01*
X87698000Y-16846000D02*
X91948000Y-16846000D01*
D12*
%TO.C,IC1*%
X20828000Y-41656000D02*
X20828000Y-59436000D01*
X56388000Y-41656000D02*
X20828000Y-41656000D01*
X56388000Y-59436000D02*
X56388000Y-41656000D01*
X20828000Y-59436000D02*
X56388000Y-59436000D01*
D11*
%TO.C,J9*%
X51898000Y-21522000D02*
X51898000Y-17272000D01*
X59758000Y-21522000D02*
X51898000Y-21522000D01*
X59758000Y-13022000D02*
X59758000Y-21522000D01*
X53848000Y-13022000D02*
X59758000Y-13022000D01*
D10*
%TO.C,J5*%
X52003000Y-30166000D02*
X52003000Y-32826000D01*
X46863000Y-30166000D02*
X52003000Y-30166000D01*
X46863000Y-32826000D02*
X52003000Y-32826000D01*
X46863000Y-30166000D02*
X46863000Y-32826000D01*
X45593000Y-30166000D02*
X44263000Y-30166000D01*
X44263000Y-30166000D02*
X44263000Y-31496000D01*
%TO.C,J10*%
X70358000Y-29210000D02*
X70298000Y-34230000D01*
X105918000Y-29210000D02*
X70358000Y-29210000D01*
X105918000Y-55880000D02*
X105918000Y-29210000D01*
X70358000Y-55880000D02*
X105918000Y-55880000D01*
X70358000Y-41910000D02*
X70358000Y-55880000D01*
X70298000Y-34230000D02*
X72958000Y-34230000D01*
X70298000Y-39370000D02*
X70298000Y-34230000D01*
X72958000Y-39370000D02*
X72958000Y-34230000D01*
X70298000Y-39370000D02*
X72958000Y-39370000D01*
X70298000Y-40640000D02*
X70298000Y-41970000D01*
X70298000Y-41970000D02*
X71628000Y-41970000D01*
%TO.C,J13*%
X86300000Y-74930000D02*
X88960000Y-74930000D01*
X86300000Y-72330000D02*
X88960000Y-72330000D01*
X86300000Y-74930000D02*
X86300000Y-72330000D01*
X86300000Y-77530000D02*
X87630000Y-77530000D01*
X86300000Y-76200000D02*
X86300000Y-77530000D01*
X88960000Y-74930000D02*
X88960000Y-72330000D01*
X88900000Y-69850000D02*
X88900000Y-71120000D01*
X57150000Y-69850000D02*
X88900000Y-69850000D01*
X57090000Y-72330000D02*
X57150000Y-69850000D01*
X88900000Y-80010000D02*
X88900000Y-71120000D01*
X57150000Y-80010000D02*
X88900000Y-80010000D01*
X57150000Y-77470000D02*
X57150000Y-80010000D01*
X57090000Y-72330000D02*
X59750000Y-72330000D01*
X57090000Y-74930000D02*
X57090000Y-72330000D01*
X59750000Y-74930000D02*
X59750000Y-72330000D01*
X57090000Y-74930000D02*
X59750000Y-74930000D01*
X57090000Y-76200000D02*
X57090000Y-77530000D01*
X57090000Y-77530000D02*
X58420000Y-77530000D01*
%TO.C,J19*%
X33528000Y-20634000D02*
X34858000Y-20634000D01*
X34858000Y-20634000D02*
X34858000Y-19304000D01*
X34858000Y-18034000D02*
X34858000Y-15434000D01*
X32198000Y-15434000D02*
X34858000Y-15434000D01*
X32198000Y-18034000D02*
X32198000Y-15434000D01*
X32198000Y-18034000D02*
X34858000Y-18034000D01*
%TO.C,J18*%
X53848000Y-77530000D02*
X55178000Y-77530000D01*
X55178000Y-77530000D02*
X55178000Y-76200000D01*
X55178000Y-74930000D02*
X55178000Y-72330000D01*
X52518000Y-72330000D02*
X55178000Y-72330000D01*
X52518000Y-74930000D02*
X52518000Y-72330000D01*
X52518000Y-74930000D02*
X55178000Y-74930000D01*
%TO.C,J17*%
X29972000Y-77530000D02*
X31302000Y-77530000D01*
X31302000Y-77530000D02*
X31302000Y-76200000D01*
X31302000Y-74930000D02*
X31302000Y-72330000D01*
X28642000Y-72330000D02*
X31302000Y-72330000D01*
X28642000Y-74930000D02*
X28642000Y-72330000D01*
X28642000Y-74930000D02*
X31302000Y-74930000D01*
D11*
%TO.C,J15*%
X25826000Y-13530000D02*
X25826000Y-17780000D01*
X17966000Y-13530000D02*
X25826000Y-13530000D01*
X17966000Y-22030000D02*
X17966000Y-13530000D01*
X23876000Y-22030000D02*
X17966000Y-22030000D01*
%TO.C,J14*%
X70290000Y-66974000D02*
X66040000Y-66974000D01*
X70290000Y-59114000D02*
X70290000Y-66974000D01*
X61790000Y-59114000D02*
X70290000Y-59114000D01*
X61790000Y-65024000D02*
X61790000Y-59114000D01*
D10*
%TO.C,J11*%
X31242000Y-63186000D02*
X31242000Y-65846000D01*
X31242000Y-63186000D02*
X38922000Y-63186000D01*
X38922000Y-63186000D02*
X38922000Y-65846000D01*
X31242000Y-65846000D02*
X38922000Y-65846000D01*
X28642000Y-65846000D02*
X29972000Y-65846000D01*
X28642000Y-64516000D02*
X28642000Y-65846000D01*
D11*
%TO.C,J8*%
X15830000Y-78926000D02*
X15830000Y-74676000D01*
X23690000Y-78926000D02*
X15830000Y-78926000D01*
X23690000Y-70426000D02*
X23690000Y-78926000D01*
X17780000Y-70426000D02*
X23690000Y-70426000D01*
D10*
%TO.C,J7*%
X39938000Y-30166000D02*
X39938000Y-32826000D01*
X34798000Y-30166000D02*
X39938000Y-30166000D01*
X34798000Y-32826000D02*
X39938000Y-32826000D01*
X34798000Y-30166000D02*
X34798000Y-32826000D01*
X33528000Y-30166000D02*
X32198000Y-30166000D01*
X32198000Y-30166000D02*
X32198000Y-31496000D01*
%TO.C,J4*%
X27238000Y-30166000D02*
X27238000Y-32826000D01*
X22098000Y-30166000D02*
X27238000Y-30166000D01*
X22098000Y-32826000D02*
X27238000Y-32826000D01*
X22098000Y-30166000D02*
X22098000Y-32826000D01*
X20828000Y-30166000D02*
X19498000Y-30166000D01*
X19498000Y-30166000D02*
X19498000Y-31496000D01*
D11*
%TO.C,J3*%
X48178000Y-70426000D02*
X48178000Y-74676000D01*
X40318000Y-70426000D02*
X48178000Y-70426000D01*
X40318000Y-78926000D02*
X40318000Y-70426000D01*
X46228000Y-78926000D02*
X40318000Y-78926000D01*
%TO.C,J2*%
X95690000Y-66974000D02*
X91440000Y-66974000D01*
X95690000Y-59114000D02*
X95690000Y-66974000D01*
X87190000Y-59114000D02*
X95690000Y-59114000D01*
X87190000Y-65024000D02*
X87190000Y-59114000D01*
D10*
%TO.C,J1*%
X37398000Y-55686000D02*
X34738000Y-55686000D01*
X37398000Y-48006000D02*
X37398000Y-55686000D01*
X34738000Y-48006000D02*
X34738000Y-55686000D01*
X37398000Y-48006000D02*
X34738000Y-48006000D01*
X37398000Y-46736000D02*
X37398000Y-45406000D01*
X37398000Y-45406000D02*
X36068000Y-45406000D01*
%TO.C,C1*%
X85860000Y-63032000D02*
G75*
G03*
X85860000Y-63032000I-7120000J0D01*
G01*
X85820000Y-63032000D02*
X71660000Y-63032000D01*
X85820000Y-62992000D02*
X71660000Y-62992000D01*
X85820000Y-62952000D02*
X71660000Y-62952000D01*
X85819000Y-62912000D02*
X71661000Y-62912000D01*
X85819000Y-62872000D02*
X71661000Y-62872000D01*
X85818000Y-62832000D02*
X71662000Y-62832000D01*
X85816000Y-62792000D02*
X71664000Y-62792000D01*
X85815000Y-62752000D02*
X71665000Y-62752000D01*
X85813000Y-62712000D02*
X71667000Y-62712000D01*
X85811000Y-62672000D02*
X71669000Y-62672000D01*
X85809000Y-62632000D02*
X71671000Y-62632000D01*
X85807000Y-62592000D02*
X71673000Y-62592000D01*
X85804000Y-62552000D02*
X71676000Y-62552000D01*
X85801000Y-62512000D02*
X71679000Y-62512000D01*
X85798000Y-62472000D02*
X71682000Y-62472000D01*
X85795000Y-62432000D02*
X71685000Y-62432000D01*
X85792000Y-62392000D02*
X71688000Y-62392000D01*
X85788000Y-62352000D02*
X71692000Y-62352000D01*
X85784000Y-62311000D02*
X71696000Y-62311000D01*
X85780000Y-62271000D02*
X71700000Y-62271000D01*
X85775000Y-62231000D02*
X71705000Y-62231000D01*
X85771000Y-62191000D02*
X71709000Y-62191000D01*
X85766000Y-62151000D02*
X71714000Y-62151000D01*
X85761000Y-62111000D02*
X71719000Y-62111000D01*
X85755000Y-62071000D02*
X71725000Y-62071000D01*
X85750000Y-62031000D02*
X71730000Y-62031000D01*
X85744000Y-61991000D02*
X71736000Y-61991000D01*
X85738000Y-61951000D02*
X80180000Y-61951000D01*
X77300000Y-61951000D02*
X71742000Y-61951000D01*
X85732000Y-61911000D02*
X80180000Y-61911000D01*
X77300000Y-61911000D02*
X71748000Y-61911000D01*
X85725000Y-61871000D02*
X80180000Y-61871000D01*
X77300000Y-61871000D02*
X71755000Y-61871000D01*
X85719000Y-61831000D02*
X80180000Y-61831000D01*
X77300000Y-61831000D02*
X71761000Y-61831000D01*
X85712000Y-61791000D02*
X80180000Y-61791000D01*
X77300000Y-61791000D02*
X71768000Y-61791000D01*
X85704000Y-61751000D02*
X80180000Y-61751000D01*
X77300000Y-61751000D02*
X71776000Y-61751000D01*
X85697000Y-61711000D02*
X80180000Y-61711000D01*
X77300000Y-61711000D02*
X71783000Y-61711000D01*
X85689000Y-61671000D02*
X80180000Y-61671000D01*
X77300000Y-61671000D02*
X71791000Y-61671000D01*
X85682000Y-61631000D02*
X80180000Y-61631000D01*
X77300000Y-61631000D02*
X71798000Y-61631000D01*
X85673000Y-61591000D02*
X80180000Y-61591000D01*
X77300000Y-61591000D02*
X71807000Y-61591000D01*
X85665000Y-61551000D02*
X80180000Y-61551000D01*
X77300000Y-61551000D02*
X71815000Y-61551000D01*
X85656000Y-61511000D02*
X80180000Y-61511000D01*
X77300000Y-61511000D02*
X71824000Y-61511000D01*
X85647000Y-61471000D02*
X80180000Y-61471000D01*
X77300000Y-61471000D02*
X71833000Y-61471000D01*
X85638000Y-61431000D02*
X80180000Y-61431000D01*
X77300000Y-61431000D02*
X71842000Y-61431000D01*
X85629000Y-61391000D02*
X80180000Y-61391000D01*
X77300000Y-61391000D02*
X71851000Y-61391000D01*
X85619000Y-61351000D02*
X80180000Y-61351000D01*
X77300000Y-61351000D02*
X71861000Y-61351000D01*
X85610000Y-61311000D02*
X80180000Y-61311000D01*
X77300000Y-61311000D02*
X71870000Y-61311000D01*
X85600000Y-61271000D02*
X80180000Y-61271000D01*
X77300000Y-61271000D02*
X71880000Y-61271000D01*
X85589000Y-61231000D02*
X80180000Y-61231000D01*
X77300000Y-61231000D02*
X71891000Y-61231000D01*
X85579000Y-61191000D02*
X80180000Y-61191000D01*
X77300000Y-61191000D02*
X71901000Y-61191000D01*
X85568000Y-61151000D02*
X80180000Y-61151000D01*
X77300000Y-61151000D02*
X71912000Y-61151000D01*
X85557000Y-61111000D02*
X80180000Y-61111000D01*
X77300000Y-61111000D02*
X71923000Y-61111000D01*
X85545000Y-61071000D02*
X80180000Y-61071000D01*
X77300000Y-61071000D02*
X71935000Y-61071000D01*
X85534000Y-61031000D02*
X80180000Y-61031000D01*
X77300000Y-61031000D02*
X71946000Y-61031000D01*
X85522000Y-60991000D02*
X80180000Y-60991000D01*
X77300000Y-60991000D02*
X71958000Y-60991000D01*
X85510000Y-60951000D02*
X80180000Y-60951000D01*
X77300000Y-60951000D02*
X71970000Y-60951000D01*
X85498000Y-60911000D02*
X80180000Y-60911000D01*
X77300000Y-60911000D02*
X71982000Y-60911000D01*
X85485000Y-60871000D02*
X80180000Y-60871000D01*
X77300000Y-60871000D02*
X71995000Y-60871000D01*
X85472000Y-60831000D02*
X80180000Y-60831000D01*
X77300000Y-60831000D02*
X72008000Y-60831000D01*
X85459000Y-60791000D02*
X80180000Y-60791000D01*
X77300000Y-60791000D02*
X72021000Y-60791000D01*
X85446000Y-60751000D02*
X80180000Y-60751000D01*
X77300000Y-60751000D02*
X72034000Y-60751000D01*
X85432000Y-60711000D02*
X80180000Y-60711000D01*
X77300000Y-60711000D02*
X72048000Y-60711000D01*
X85418000Y-60671000D02*
X80180000Y-60671000D01*
X77300000Y-60671000D02*
X72062000Y-60671000D01*
X85404000Y-60631000D02*
X80180000Y-60631000D01*
X77300000Y-60631000D02*
X72076000Y-60631000D01*
X85389000Y-60591000D02*
X80180000Y-60591000D01*
X77300000Y-60591000D02*
X72091000Y-60591000D01*
X85375000Y-60551000D02*
X80180000Y-60551000D01*
X77300000Y-60551000D02*
X72105000Y-60551000D01*
X85360000Y-60511000D02*
X80180000Y-60511000D01*
X77300000Y-60511000D02*
X72120000Y-60511000D01*
X85344000Y-60471000D02*
X80180000Y-60471000D01*
X77300000Y-60471000D02*
X72136000Y-60471000D01*
X85329000Y-60431000D02*
X80180000Y-60431000D01*
X77300000Y-60431000D02*
X72151000Y-60431000D01*
X85313000Y-60391000D02*
X80180000Y-60391000D01*
X77300000Y-60391000D02*
X72167000Y-60391000D01*
X85297000Y-60351000D02*
X80180000Y-60351000D01*
X77300000Y-60351000D02*
X72183000Y-60351000D01*
X85280000Y-60311000D02*
X80180000Y-60311000D01*
X77300000Y-60311000D02*
X72200000Y-60311000D01*
X85264000Y-60271000D02*
X80180000Y-60271000D01*
X77300000Y-60271000D02*
X72216000Y-60271000D01*
X85247000Y-60231000D02*
X80180000Y-60231000D01*
X77300000Y-60231000D02*
X72233000Y-60231000D01*
X85230000Y-60191000D02*
X80180000Y-60191000D01*
X77300000Y-60191000D02*
X72250000Y-60191000D01*
X85212000Y-60151000D02*
X80180000Y-60151000D01*
X77300000Y-60151000D02*
X72268000Y-60151000D01*
X85194000Y-60111000D02*
X80180000Y-60111000D01*
X77300000Y-60111000D02*
X72286000Y-60111000D01*
X85176000Y-60071000D02*
X80180000Y-60071000D01*
X77300000Y-60071000D02*
X72304000Y-60071000D01*
X85158000Y-60031000D02*
X80180000Y-60031000D01*
X77300000Y-60031000D02*
X72322000Y-60031000D01*
X85139000Y-59991000D02*
X80180000Y-59991000D01*
X77300000Y-59991000D02*
X72341000Y-59991000D01*
X85120000Y-59951000D02*
X80180000Y-59951000D01*
X77300000Y-59951000D02*
X72360000Y-59951000D01*
X85100000Y-59911000D02*
X80180000Y-59911000D01*
X77300000Y-59911000D02*
X72380000Y-59911000D01*
X85081000Y-59871000D02*
X80180000Y-59871000D01*
X77300000Y-59871000D02*
X72399000Y-59871000D01*
X85061000Y-59831000D02*
X80180000Y-59831000D01*
X77300000Y-59831000D02*
X72419000Y-59831000D01*
X85041000Y-59791000D02*
X80180000Y-59791000D01*
X77300000Y-59791000D02*
X72439000Y-59791000D01*
X85020000Y-59751000D02*
X80180000Y-59751000D01*
X77300000Y-59751000D02*
X72460000Y-59751000D01*
X84999000Y-59711000D02*
X80180000Y-59711000D01*
X77300000Y-59711000D02*
X72481000Y-59711000D01*
X84978000Y-59671000D02*
X80180000Y-59671000D01*
X77300000Y-59671000D02*
X72502000Y-59671000D01*
X84956000Y-59631000D02*
X80180000Y-59631000D01*
X77300000Y-59631000D02*
X72524000Y-59631000D01*
X84934000Y-59591000D02*
X80180000Y-59591000D01*
X77300000Y-59591000D02*
X72546000Y-59591000D01*
X84912000Y-59551000D02*
X80180000Y-59551000D01*
X77300000Y-59551000D02*
X72568000Y-59551000D01*
X84890000Y-59511000D02*
X80180000Y-59511000D01*
X77300000Y-59511000D02*
X72590000Y-59511000D01*
X84867000Y-59471000D02*
X80180000Y-59471000D01*
X77300000Y-59471000D02*
X72613000Y-59471000D01*
X84843000Y-59431000D02*
X80180000Y-59431000D01*
X77300000Y-59431000D02*
X72637000Y-59431000D01*
X84820000Y-59391000D02*
X80180000Y-59391000D01*
X77300000Y-59391000D02*
X72660000Y-59391000D01*
X84796000Y-59351000D02*
X80180000Y-59351000D01*
X77300000Y-59351000D02*
X72684000Y-59351000D01*
X84771000Y-59311000D02*
X80180000Y-59311000D01*
X77300000Y-59311000D02*
X72709000Y-59311000D01*
X84747000Y-59271000D02*
X80180000Y-59271000D01*
X77300000Y-59271000D02*
X72733000Y-59271000D01*
X84722000Y-59231000D02*
X80180000Y-59231000D01*
X77300000Y-59231000D02*
X72758000Y-59231000D01*
X84696000Y-59191000D02*
X80180000Y-59191000D01*
X77300000Y-59191000D02*
X72784000Y-59191000D01*
X84670000Y-59151000D02*
X80180000Y-59151000D01*
X77300000Y-59151000D02*
X72810000Y-59151000D01*
X84644000Y-59111000D02*
X80180000Y-59111000D01*
X77300000Y-59111000D02*
X72836000Y-59111000D01*
X84618000Y-59071000D02*
X72862000Y-59071000D01*
X84591000Y-59031000D02*
X72889000Y-59031000D01*
X84563000Y-58991000D02*
X72917000Y-58991000D01*
X84536000Y-58951000D02*
X72944000Y-58951000D01*
X84507000Y-58911000D02*
X72973000Y-58911000D01*
X84479000Y-58871000D02*
X73001000Y-58871000D01*
X84450000Y-58831000D02*
X73030000Y-58831000D01*
X84420000Y-58791000D02*
X73060000Y-58791000D01*
X84390000Y-58751000D02*
X73090000Y-58751000D01*
X84360000Y-58711000D02*
X73120000Y-58711000D01*
X84329000Y-58671000D02*
X73151000Y-58671000D01*
X84298000Y-58631000D02*
X73182000Y-58631000D01*
X84267000Y-58591000D02*
X73213000Y-58591000D01*
X84234000Y-58551000D02*
X73246000Y-58551000D01*
X84202000Y-58511000D02*
X73278000Y-58511000D01*
X84169000Y-58471000D02*
X73311000Y-58471000D01*
X84135000Y-58431000D02*
X73345000Y-58431000D01*
X84101000Y-58391000D02*
X73379000Y-58391000D01*
X84066000Y-58351000D02*
X73414000Y-58351000D01*
X84031000Y-58311000D02*
X73449000Y-58311000D01*
X83995000Y-58271000D02*
X73485000Y-58271000D01*
X83959000Y-58231000D02*
X73521000Y-58231000D01*
X83922000Y-58191000D02*
X73558000Y-58191000D01*
X83885000Y-58151000D02*
X73595000Y-58151000D01*
X83847000Y-58111000D02*
X73633000Y-58111000D01*
X83809000Y-58071000D02*
X73671000Y-58071000D01*
X83769000Y-58031000D02*
X73711000Y-58031000D01*
X83730000Y-57991000D02*
X73750000Y-57991000D01*
X83689000Y-57951000D02*
X73791000Y-57951000D01*
X83648000Y-57911000D02*
X73832000Y-57911000D01*
X83606000Y-57871000D02*
X73874000Y-57871000D01*
X83564000Y-57831000D02*
X73916000Y-57831000D01*
X83521000Y-57791000D02*
X73959000Y-57791000D01*
X83477000Y-57751000D02*
X74003000Y-57751000D01*
X83433000Y-57711000D02*
X74047000Y-57711000D01*
X83387000Y-57671000D02*
X74093000Y-57671000D01*
X83341000Y-57631000D02*
X74139000Y-57631000D01*
X83294000Y-57591000D02*
X74186000Y-57591000D01*
X83246000Y-57551000D02*
X74234000Y-57551000D01*
X83198000Y-57511000D02*
X74282000Y-57511000D01*
X83148000Y-57471000D02*
X74332000Y-57471000D01*
X83098000Y-57431000D02*
X74382000Y-57431000D01*
X83046000Y-57391000D02*
X74434000Y-57391000D01*
X82994000Y-57351000D02*
X74486000Y-57351000D01*
X82940000Y-57311000D02*
X74540000Y-57311000D01*
X82886000Y-57271000D02*
X74594000Y-57271000D01*
X82830000Y-57231000D02*
X74650000Y-57231000D01*
X82773000Y-57191000D02*
X74707000Y-57191000D01*
X82715000Y-57151000D02*
X74765000Y-57151000D01*
X82656000Y-57111000D02*
X74824000Y-57111000D01*
X82596000Y-57071000D02*
X74884000Y-57071000D01*
X82534000Y-57031000D02*
X74946000Y-57031000D01*
X82470000Y-56991000D02*
X75010000Y-56991000D01*
X82406000Y-56951000D02*
X75074000Y-56951000D01*
X82339000Y-56911000D02*
X75141000Y-56911000D01*
X82271000Y-56871000D02*
X75209000Y-56871000D01*
X82201000Y-56831000D02*
X75279000Y-56831000D01*
X82129000Y-56791000D02*
X75351000Y-56791000D01*
X82055000Y-56751000D02*
X75425000Y-56751000D01*
X81980000Y-56711000D02*
X75500000Y-56711000D01*
X81901000Y-56671000D02*
X75579000Y-56671000D01*
X81820000Y-56631000D02*
X75660000Y-56631000D01*
X81737000Y-56591000D02*
X75743000Y-56591000D01*
X81651000Y-56551000D02*
X75829000Y-56551000D01*
X81561000Y-56511000D02*
X75919000Y-56511000D01*
X81468000Y-56471000D02*
X76012000Y-56471000D01*
X81372000Y-56431000D02*
X76108000Y-56431000D01*
X81270000Y-56391000D02*
X76210000Y-56391000D01*
X81165000Y-56351000D02*
X76315000Y-56351000D01*
X81053000Y-56311000D02*
X76427000Y-56311000D01*
X80936000Y-56271000D02*
X76544000Y-56271000D01*
X80811000Y-56231000D02*
X76669000Y-56231000D01*
X80678000Y-56191000D02*
X76802000Y-56191000D01*
X80534000Y-56151000D02*
X76946000Y-56151000D01*
X80376000Y-56111000D02*
X77104000Y-56111000D01*
X80201000Y-56071000D02*
X77279000Y-56071000D01*
X80002000Y-56031000D02*
X77478000Y-56031000D01*
X79765000Y-55991000D02*
X77715000Y-55991000D01*
X79454000Y-55951000D02*
X78026000Y-55951000D01*
X82735000Y-70651543D02*
X82735000Y-69251543D01*
X83435000Y-69951543D02*
X82035000Y-69951543D01*
%TO.C,REF\u002A\u002A*%
D13*
X47561333Y-68960380D02*
X47894666Y-68484190D01*
X48132761Y-68960380D02*
X48132761Y-67960380D01*
X47751809Y-67960380D01*
X47656571Y-68008000D01*
X47608952Y-68055619D01*
X47561333Y-68150857D01*
X47561333Y-68293714D01*
X47608952Y-68388952D01*
X47656571Y-68436571D01*
X47751809Y-68484190D01*
X48132761Y-68484190D01*
X47132761Y-68436571D02*
X46799428Y-68436571D01*
X46656571Y-68960380D02*
X47132761Y-68960380D01*
X47132761Y-67960380D01*
X46656571Y-67960380D01*
X45894666Y-68436571D02*
X46228000Y-68436571D01*
X46228000Y-68960380D02*
X46228000Y-67960380D01*
X45751809Y-67960380D01*
X45228000Y-67960380D02*
X45228000Y-68198476D01*
X45466095Y-68103238D02*
X45228000Y-68198476D01*
X44989904Y-68103238D01*
X45370857Y-68388952D02*
X45228000Y-68198476D01*
X45085142Y-68388952D01*
X44466095Y-67960380D02*
X44466095Y-68198476D01*
X44704190Y-68103238D02*
X44466095Y-68198476D01*
X44228000Y-68103238D01*
X44608952Y-68388952D02*
X44466095Y-68198476D01*
X44323238Y-68388952D01*
X33337333Y-30352380D02*
X33670666Y-29876190D01*
X33908761Y-30352380D02*
X33908761Y-29352380D01*
X33527809Y-29352380D01*
X33432571Y-29400000D01*
X33384952Y-29447619D01*
X33337333Y-29542857D01*
X33337333Y-29685714D01*
X33384952Y-29780952D01*
X33432571Y-29828571D01*
X33527809Y-29876190D01*
X33908761Y-29876190D01*
X32908761Y-29828571D02*
X32575428Y-29828571D01*
X32432571Y-30352380D02*
X32908761Y-30352380D01*
X32908761Y-29352380D01*
X32432571Y-29352380D01*
X31670666Y-29828571D02*
X32004000Y-29828571D01*
X32004000Y-30352380D02*
X32004000Y-29352380D01*
X31527809Y-29352380D01*
X31004000Y-29352380D02*
X31004000Y-29590476D01*
X31242095Y-29495238D02*
X31004000Y-29590476D01*
X30765904Y-29495238D01*
X31146857Y-29780952D02*
X31004000Y-29590476D01*
X30861142Y-29780952D01*
X30242095Y-29352380D02*
X30242095Y-29590476D01*
X30480190Y-29495238D02*
X30242095Y-29590476D01*
X30004000Y-29495238D01*
X30384952Y-29780952D02*
X30242095Y-29590476D01*
X30099238Y-29780952D01*
%TO.C,J6*%
X57066380Y-31162666D02*
X57780666Y-31162666D01*
X57923523Y-31115047D01*
X58018761Y-31019809D01*
X58066380Y-30876952D01*
X58066380Y-30781714D01*
X57066380Y-32067428D02*
X57066380Y-31876952D01*
X57114000Y-31781714D01*
X57161619Y-31734095D01*
X57304476Y-31638857D01*
X57494952Y-31591238D01*
X57875904Y-31591238D01*
X57971142Y-31638857D01*
X58018761Y-31686476D01*
X58066380Y-31781714D01*
X58066380Y-31972190D01*
X58018761Y-32067428D01*
X57971142Y-32115047D01*
X57875904Y-32162666D01*
X57637809Y-32162666D01*
X57542571Y-32115047D01*
X57494952Y-32067428D01*
X57447333Y-31972190D01*
X57447333Y-31781714D01*
X57494952Y-31686476D01*
X57542571Y-31638857D01*
X57637809Y-31591238D01*
%TO.C,J12*%
X67357523Y-11854380D02*
X67357523Y-12568666D01*
X67405142Y-12711523D01*
X67500380Y-12806761D01*
X67643238Y-12854380D01*
X67738476Y-12854380D01*
X66357523Y-12854380D02*
X66928952Y-12854380D01*
X66643238Y-12854380D02*
X66643238Y-11854380D01*
X66738476Y-11997238D01*
X66833714Y-12092476D01*
X66928952Y-12140095D01*
X65976571Y-11949619D02*
X65928952Y-11902000D01*
X65833714Y-11854380D01*
X65595619Y-11854380D01*
X65500380Y-11902000D01*
X65452761Y-11949619D01*
X65405142Y-12044857D01*
X65405142Y-12140095D01*
X65452761Y-12282952D01*
X66024190Y-12854380D01*
X65405142Y-12854380D01*
%TO.C,J20*%
X63293523Y-21018380D02*
X63293523Y-21732666D01*
X63341142Y-21875523D01*
X63436380Y-21970761D01*
X63579238Y-22018380D01*
X63674476Y-22018380D01*
X62864952Y-21113619D02*
X62817333Y-21066000D01*
X62722095Y-21018380D01*
X62484000Y-21018380D01*
X62388761Y-21066000D01*
X62341142Y-21113619D01*
X62293523Y-21208857D01*
X62293523Y-21304095D01*
X62341142Y-21446952D01*
X62912571Y-22018380D01*
X62293523Y-22018380D01*
X61674476Y-21018380D02*
X61579238Y-21018380D01*
X61484000Y-21066000D01*
X61436380Y-21113619D01*
X61388761Y-21208857D01*
X61341142Y-21399333D01*
X61341142Y-21637428D01*
X61388761Y-21827904D01*
X61436380Y-21923142D01*
X61484000Y-21970761D01*
X61579238Y-22018380D01*
X61674476Y-22018380D01*
X61769714Y-21970761D01*
X61817333Y-21923142D01*
X61864952Y-21827904D01*
X61912571Y-21637428D01*
X61912571Y-21399333D01*
X61864952Y-21208857D01*
X61817333Y-21113619D01*
X61769714Y-21066000D01*
X61674476Y-21018380D01*
%TO.C,J16*%
D14*
X91252523Y-17767904D02*
X92159666Y-17767904D01*
X92341095Y-17707428D01*
X92462047Y-17586476D01*
X92522523Y-17405047D01*
X92522523Y-17284095D01*
X92522523Y-19037904D02*
X92522523Y-18312190D01*
X92522523Y-18675047D02*
X91252523Y-18675047D01*
X91433952Y-18554095D01*
X91554904Y-18433142D01*
X91615380Y-18312190D01*
X91252523Y-20126476D02*
X91252523Y-19884571D01*
X91313000Y-19763619D01*
X91373476Y-19703142D01*
X91554904Y-19582190D01*
X91796809Y-19521714D01*
X92280619Y-19521714D01*
X92401571Y-19582190D01*
X92462047Y-19642666D01*
X92522523Y-19763619D01*
X92522523Y-20005523D01*
X92462047Y-20126476D01*
X92401571Y-20186952D01*
X92280619Y-20247428D01*
X91978238Y-20247428D01*
X91857285Y-20186952D01*
X91796809Y-20126476D01*
X91736333Y-20005523D01*
X91736333Y-19763619D01*
X91796809Y-19642666D01*
X91857285Y-19582190D01*
X91978238Y-19521714D01*
%TO.C,IC1*%
X39847761Y-51120523D02*
X39847761Y-49850523D01*
X38517285Y-50999571D02*
X38577761Y-51060047D01*
X38759190Y-51120523D01*
X38880142Y-51120523D01*
X39061571Y-51060047D01*
X39182523Y-50939095D01*
X39243000Y-50818142D01*
X39303476Y-50576238D01*
X39303476Y-50394809D01*
X39243000Y-50152904D01*
X39182523Y-50031952D01*
X39061571Y-49911000D01*
X38880142Y-49850523D01*
X38759190Y-49850523D01*
X38577761Y-49911000D01*
X38517285Y-49971476D01*
X37307761Y-51120523D02*
X38033476Y-51120523D01*
X37670619Y-51120523D02*
X37670619Y-49850523D01*
X37791571Y-50031952D01*
X37912523Y-50152904D01*
X38033476Y-50213380D01*
%TO.C,J9*%
X54271333Y-16576523D02*
X54271333Y-17483666D01*
X54331809Y-17665095D01*
X54452761Y-17786047D01*
X54634190Y-17846523D01*
X54755142Y-17846523D01*
X53606095Y-17846523D02*
X53364190Y-17846523D01*
X53243238Y-17786047D01*
X53182761Y-17725571D01*
X53061809Y-17544142D01*
X53001333Y-17302238D01*
X53001333Y-16818428D01*
X53061809Y-16697476D01*
X53122285Y-16637000D01*
X53243238Y-16576523D01*
X53485142Y-16576523D01*
X53606095Y-16637000D01*
X53666571Y-16697476D01*
X53727047Y-16818428D01*
X53727047Y-17120809D01*
X53666571Y-17241761D01*
X53606095Y-17302238D01*
X53485142Y-17362714D01*
X53243238Y-17362714D01*
X53122285Y-17302238D01*
X53061809Y-17241761D01*
X53001333Y-17120809D01*
%TO.C,J5*%
D13*
X42715380Y-31162666D02*
X43429666Y-31162666D01*
X43572523Y-31115047D01*
X43667761Y-31019809D01*
X43715380Y-30876952D01*
X43715380Y-30781714D01*
X42715380Y-32115047D02*
X42715380Y-31638857D01*
X43191571Y-31591238D01*
X43143952Y-31638857D01*
X43096333Y-31734095D01*
X43096333Y-31972190D01*
X43143952Y-32067428D01*
X43191571Y-32115047D01*
X43286809Y-32162666D01*
X43524904Y-32162666D01*
X43620142Y-32115047D01*
X43667761Y-32067428D01*
X43715380Y-31972190D01*
X43715380Y-31734095D01*
X43667761Y-31638857D01*
X43620142Y-31591238D01*
%TO.C,J10*%
X72437523Y-42422380D02*
X72437523Y-43136666D01*
X72485142Y-43279523D01*
X72580380Y-43374761D01*
X72723238Y-43422380D01*
X72818476Y-43422380D01*
X71437523Y-43422380D02*
X72008952Y-43422380D01*
X71723238Y-43422380D02*
X71723238Y-42422380D01*
X71818476Y-42565238D01*
X71913714Y-42660476D01*
X72008952Y-42708095D01*
X70818476Y-42422380D02*
X70723238Y-42422380D01*
X70628000Y-42470000D01*
X70580380Y-42517619D01*
X70532761Y-42612857D01*
X70485142Y-42803333D01*
X70485142Y-43041428D01*
X70532761Y-43231904D01*
X70580380Y-43327142D01*
X70628000Y-43374761D01*
X70723238Y-43422380D01*
X70818476Y-43422380D01*
X70913714Y-43374761D01*
X70961333Y-43327142D01*
X71008952Y-43231904D01*
X71056571Y-43041428D01*
X71056571Y-42803333D01*
X71008952Y-42612857D01*
X70961333Y-42517619D01*
X70913714Y-42470000D01*
X70818476Y-42422380D01*
%TO.C,J13*%
X59229523Y-77982380D02*
X59229523Y-78696666D01*
X59277142Y-78839523D01*
X59372380Y-78934761D01*
X59515238Y-78982380D01*
X59610476Y-78982380D01*
X58229523Y-78982380D02*
X58800952Y-78982380D01*
X58515238Y-78982380D02*
X58515238Y-77982380D01*
X58610476Y-78125238D01*
X58705714Y-78220476D01*
X58800952Y-78268095D01*
X57896190Y-77982380D02*
X57277142Y-77982380D01*
X57610476Y-78363333D01*
X57467619Y-78363333D01*
X57372380Y-78410952D01*
X57324761Y-78458571D01*
X57277142Y-78553809D01*
X57277142Y-78791904D01*
X57324761Y-78887142D01*
X57372380Y-78934761D01*
X57467619Y-78982380D01*
X57753333Y-78982380D01*
X57848571Y-78934761D01*
X57896190Y-78887142D01*
%TO.C,J19*%
X34337523Y-21526380D02*
X34337523Y-22240666D01*
X34385142Y-22383523D01*
X34480380Y-22478761D01*
X34623238Y-22526380D01*
X34718476Y-22526380D01*
X33337523Y-22526380D02*
X33908952Y-22526380D01*
X33623238Y-22526380D02*
X33623238Y-21526380D01*
X33718476Y-21669238D01*
X33813714Y-21764476D01*
X33908952Y-21812095D01*
X32861333Y-22526380D02*
X32670857Y-22526380D01*
X32575619Y-22478761D01*
X32528000Y-22431142D01*
X32432761Y-22288285D01*
X32385142Y-22097809D01*
X32385142Y-21716857D01*
X32432761Y-21621619D01*
X32480380Y-21574000D01*
X32575619Y-21526380D01*
X32766095Y-21526380D01*
X32861333Y-21574000D01*
X32908952Y-21621619D01*
X32956571Y-21716857D01*
X32956571Y-21954952D01*
X32908952Y-22050190D01*
X32861333Y-22097809D01*
X32766095Y-22145428D01*
X32575619Y-22145428D01*
X32480380Y-22097809D01*
X32432761Y-22050190D01*
X32385142Y-21954952D01*
%TO.C,J18*%
X54657523Y-78422380D02*
X54657523Y-79136666D01*
X54705142Y-79279523D01*
X54800380Y-79374761D01*
X54943238Y-79422380D01*
X55038476Y-79422380D01*
X53657523Y-79422380D02*
X54228952Y-79422380D01*
X53943238Y-79422380D02*
X53943238Y-78422380D01*
X54038476Y-78565238D01*
X54133714Y-78660476D01*
X54228952Y-78708095D01*
X53086095Y-78850952D02*
X53181333Y-78803333D01*
X53228952Y-78755714D01*
X53276571Y-78660476D01*
X53276571Y-78612857D01*
X53228952Y-78517619D01*
X53181333Y-78470000D01*
X53086095Y-78422380D01*
X52895619Y-78422380D01*
X52800380Y-78470000D01*
X52752761Y-78517619D01*
X52705142Y-78612857D01*
X52705142Y-78660476D01*
X52752761Y-78755714D01*
X52800380Y-78803333D01*
X52895619Y-78850952D01*
X53086095Y-78850952D01*
X53181333Y-78898571D01*
X53228952Y-78946190D01*
X53276571Y-79041428D01*
X53276571Y-79231904D01*
X53228952Y-79327142D01*
X53181333Y-79374761D01*
X53086095Y-79422380D01*
X52895619Y-79422380D01*
X52800380Y-79374761D01*
X52752761Y-79327142D01*
X52705142Y-79231904D01*
X52705142Y-79041428D01*
X52752761Y-78946190D01*
X52800380Y-78898571D01*
X52895619Y-78850952D01*
%TO.C,J17*%
X30781523Y-78422380D02*
X30781523Y-79136666D01*
X30829142Y-79279523D01*
X30924380Y-79374761D01*
X31067238Y-79422380D01*
X31162476Y-79422380D01*
X29781523Y-79422380D02*
X30352952Y-79422380D01*
X30067238Y-79422380D02*
X30067238Y-78422380D01*
X30162476Y-78565238D01*
X30257714Y-78660476D01*
X30352952Y-78708095D01*
X29448190Y-78422380D02*
X28781523Y-78422380D01*
X29210095Y-79422380D01*
%TO.C,J15*%
D14*
X24904095Y-17084523D02*
X24904095Y-17991666D01*
X24964571Y-18173095D01*
X25085523Y-18294047D01*
X25266952Y-18354523D01*
X25387904Y-18354523D01*
X23634095Y-18354523D02*
X24359809Y-18354523D01*
X23996952Y-18354523D02*
X23996952Y-17084523D01*
X24117904Y-17265952D01*
X24238857Y-17386904D01*
X24359809Y-17447380D01*
X22485047Y-17084523D02*
X23089809Y-17084523D01*
X23150285Y-17689285D01*
X23089809Y-17628809D01*
X22968857Y-17568333D01*
X22666476Y-17568333D01*
X22545523Y-17628809D01*
X22485047Y-17689285D01*
X22424571Y-17810238D01*
X22424571Y-18112619D01*
X22485047Y-18233571D01*
X22545523Y-18294047D01*
X22666476Y-18354523D01*
X22968857Y-18354523D01*
X23089809Y-18294047D01*
X23150285Y-18233571D01*
%TO.C,J14*%
X65344523Y-63995904D02*
X66251666Y-63995904D01*
X66433095Y-63935428D01*
X66554047Y-63814476D01*
X66614523Y-63633047D01*
X66614523Y-63512095D01*
X66614523Y-65265904D02*
X66614523Y-64540190D01*
X66614523Y-64903047D02*
X65344523Y-64903047D01*
X65525952Y-64782095D01*
X65646904Y-64661142D01*
X65707380Y-64540190D01*
X65767857Y-66354476D02*
X66614523Y-66354476D01*
X65284047Y-66052095D02*
X66191190Y-65749714D01*
X66191190Y-66535904D01*
%TO.C,J11*%
D13*
X26654380Y-63706476D02*
X27368666Y-63706476D01*
X27511523Y-63658857D01*
X27606761Y-63563619D01*
X27654380Y-63420761D01*
X27654380Y-63325523D01*
X27654380Y-64706476D02*
X27654380Y-64135047D01*
X27654380Y-64420761D02*
X26654380Y-64420761D01*
X26797238Y-64325523D01*
X26892476Y-64230285D01*
X26940095Y-64135047D01*
X27654380Y-65658857D02*
X27654380Y-65087428D01*
X27654380Y-65373142D02*
X26654380Y-65373142D01*
X26797238Y-65277904D01*
X26892476Y-65182666D01*
X26940095Y-65087428D01*
%TO.C,J8*%
D14*
X18203333Y-73980523D02*
X18203333Y-74887666D01*
X18263809Y-75069095D01*
X18384761Y-75190047D01*
X18566190Y-75250523D01*
X18687142Y-75250523D01*
X17417142Y-74524809D02*
X17538095Y-74464333D01*
X17598571Y-74403857D01*
X17659047Y-74282904D01*
X17659047Y-74222428D01*
X17598571Y-74101476D01*
X17538095Y-74041000D01*
X17417142Y-73980523D01*
X17175238Y-73980523D01*
X17054285Y-74041000D01*
X16993809Y-74101476D01*
X16933333Y-74222428D01*
X16933333Y-74282904D01*
X16993809Y-74403857D01*
X17054285Y-74464333D01*
X17175238Y-74524809D01*
X17417142Y-74524809D01*
X17538095Y-74585285D01*
X17598571Y-74645761D01*
X17659047Y-74766714D01*
X17659047Y-75008619D01*
X17598571Y-75129571D01*
X17538095Y-75190047D01*
X17417142Y-75250523D01*
X17175238Y-75250523D01*
X17054285Y-75190047D01*
X16993809Y-75129571D01*
X16933333Y-75008619D01*
X16933333Y-74766714D01*
X16993809Y-74645761D01*
X17054285Y-74585285D01*
X17175238Y-74524809D01*
%TO.C,J7*%
D13*
X30650380Y-31162666D02*
X31364666Y-31162666D01*
X31507523Y-31115047D01*
X31602761Y-31019809D01*
X31650380Y-30876952D01*
X31650380Y-30781714D01*
X30650380Y-31543619D02*
X30650380Y-32210285D01*
X31650380Y-31781714D01*
%TO.C,J4*%
X17950380Y-31162666D02*
X18664666Y-31162666D01*
X18807523Y-31115047D01*
X18902761Y-31019809D01*
X18950380Y-30876952D01*
X18950380Y-30781714D01*
X18283714Y-32067428D02*
X18950380Y-32067428D01*
X17902761Y-31829333D02*
X18617047Y-31591238D01*
X18617047Y-32210285D01*
%TO.C,J3*%
D14*
X46651333Y-73980523D02*
X46651333Y-74887666D01*
X46711809Y-75069095D01*
X46832761Y-75190047D01*
X47014190Y-75250523D01*
X47135142Y-75250523D01*
X46167523Y-73980523D02*
X45381333Y-73980523D01*
X45804666Y-74464333D01*
X45623238Y-74464333D01*
X45502285Y-74524809D01*
X45441809Y-74585285D01*
X45381333Y-74706238D01*
X45381333Y-75008619D01*
X45441809Y-75129571D01*
X45502285Y-75190047D01*
X45623238Y-75250523D01*
X45986095Y-75250523D01*
X46107047Y-75190047D01*
X46167523Y-75129571D01*
%TO.C,J2*%
X90744523Y-64600666D02*
X91651666Y-64600666D01*
X91833095Y-64540190D01*
X91954047Y-64419238D01*
X92014523Y-64237809D01*
X92014523Y-64116857D01*
X90865476Y-65144952D02*
X90805000Y-65205428D01*
X90744523Y-65326380D01*
X90744523Y-65628761D01*
X90805000Y-65749714D01*
X90865476Y-65810190D01*
X90986428Y-65870666D01*
X91107380Y-65870666D01*
X91288809Y-65810190D01*
X92014523Y-65084476D01*
X92014523Y-65870666D01*
%TO.C,J1*%
D13*
X36401333Y-43858380D02*
X36401333Y-44572666D01*
X36448952Y-44715523D01*
X36544190Y-44810761D01*
X36687047Y-44858380D01*
X36782285Y-44858380D01*
X35401333Y-44858380D02*
X35972761Y-44858380D01*
X35687047Y-44858380D02*
X35687047Y-43858380D01*
X35782285Y-44001238D01*
X35877523Y-44096476D01*
X35972761Y-44144095D01*
%TO.C,C1*%
X87347142Y-62865333D02*
X87394761Y-62817714D01*
X87442380Y-62674857D01*
X87442380Y-62579619D01*
X87394761Y-62436761D01*
X87299523Y-62341523D01*
X87204285Y-62293904D01*
X87013809Y-62246285D01*
X86870952Y-62246285D01*
X86680476Y-62293904D01*
X86585238Y-62341523D01*
X86490000Y-62436761D01*
X86442380Y-62579619D01*
X86442380Y-62674857D01*
X86490000Y-62817714D01*
X86537619Y-62865333D01*
X87442380Y-63817714D02*
X87442380Y-63246285D01*
X87442380Y-63532000D02*
X86442380Y-63532000D01*
X86585238Y-63436761D01*
X86680476Y-63341523D01*
X86728095Y-63246285D01*
%TD*%
M02*
